<?xml version="1.0" standalone="no"?>
<!DOCTYPE svg PUBLIC "-//W3C//DTD SVG 20010904//EN"
 "http://www.w3.org/TR/2001/REC-SVG-20010904/DTD/svg10.dtd">
<svg version="1.0" xmlns="http://www.w3.org/2000/svg"
 width="332.000000pt" height="608.000000pt" viewBox="0 0 332.000000 608.000000"
 preserveAspectRatio="xMidYMid meet">

<g transform="translate(0.000000,608.000000) scale(0.100000,-0.100000)"
fill="#000000" stroke="none">
<path d="M60 5915 l0 -165 -30 0 -30 0 0 -129 0 -130 48 -3 47 -3 80 -155 c44
-85 89 -172 100 -192 l20 -37 0 192 0 192 38 3 37 3 0 -246 0 -246 -51 3 -51
3 -96 188 -97 187 -3 -190 -2 -190 -35 0 -35 0 0 -136 c0 -87 4 -133 10 -129
7 4 10 -75 10 -229 l0 -235 23 -4 c16 -3 13 -5 -10 -6 l-33 -1 0 -128 c0 -71
3 -131 6 -134 3 -3 5 -112 4 -242 l-1 -236 31 0 c16 0 30 -4 30 -10 0 -5 -16
-10 -35 -10 l-35 0 0 -1750 0 -1750 1660 0 1660 0 0 1966 0 1965 -55 -2 c-30
-1 -58 0 -62 4 -3 4 21 7 55 7 55 0 62 2 62 20 0 19 -7 20 -150 20 -143 0
-150 -1 -150 -20 0 -18 7 -20 55 -20 30 0 55 -3 55 -7 0 -5 -25 -6 -55 -5
l-55 4 0 -525 c0 -454 2 -526 15 -537 23 -19 23 -991 0 -1010 -13 -11 -15
-127 -15 -931 l0 -919 -1420 0 -1420 0 0 834 c0 546 -3 837 -10 841 -14 9 -14
1375 0 1375 6 0 10 23 10 50 0 28 -4 50 -10 50 -13 0 -13 227 0 235 6 4 10 64
10 146 l0 139 -45 90 c-25 49 -45 98 -44 107 0 10 20 -22 45 -71 25 -48 47
-86 49 -84 12 11 -12 83 -53 163 -40 77 -51 91 -77 96 -29 6 -29 7 7 8 37 1
38 0 78 -79 22 -44 41 -80 43 -80 1 0 1 105 -1 234 -2 129 1 258 6 287 10 53
9 54 -50 172 -32 65 -57 126 -55 135 2 10 30 -36 64 -103 l61 -120 20 45 c11
25 32 60 46 79 22 30 26 45 26 108 0 42 4 73 10 73 6 0 10 -28 10 -65 l0 -65
50 39 c28 22 59 43 70 46 12 4 20 15 20 28 1 21 1 21 14 4 12 -16 19 -17 55
-7 29 8 349 11 1079 10 l1037 0 90 -25 c76 -21 95 -30 120 -60 17 -19 39 -35
50 -36 11 0 15 -3 9 -5 -8 -3 2 -26 26 -62 66 -99 73 -133 78 -354 l4 -198
149 0 149 0 0 345 0 344 -62 4 -63 3 63 2 62 2 0 365 0 365 -60 0 -60 0 0
-210 0 -210 -35 0 -35 0 0 210 0 210 -79 0 c-85 0 -97 6 -87 46 l6 24 175 0
175 0 0 295 0 295 -65 0 -65 0 0 -165 0 -165 -30 0 -30 0 0 165 0 165 -236 0
c-209 0 -235 -2 -224 -15 7 -8 31 -20 54 -25 119 -31 151 -44 177 -70 25 -24
29 -36 29 -83 0 -93 -53 -137 -165 -137 -101 0 -171 45 -190 123 -7 25 -5 27
22 27 23 0 33 -7 45 -33 22 -46 76 -71 140 -65 62 6 88 29 88 78 0 51 -23 69
-126 96 -97 26 -130 44 -146 80 -9 20 -18 24 -52 24 l-42 0 4 -69 c5 -90 -16
-155 -66 -204 -47 -45 -78 -57 -152 -57 -74 0 -105 12 -152 57 -50 49 -71 114
-66 204 l4 70 -30 -3 c-23 -2 -31 -9 -37 -32 -18 -67 -75 -96 -191 -96 l-68 0
0 -100 0 -100 -30 0 -30 0 0 165 0 166 -142 -3 -142 -3 -19 -65 c-10 -36 -32
-109 -48 -162 -30 -98 -30 -98 -62 -98 l-33 0 -49 165 c-38 125 -53 165 -66
165 -12 0 -28 -40 -66 -162 l-50 -163 -33 0 -34 0 -27 90 c-15 50 -37 123 -49
163 l-21 72 -164 0 -165 0 0 -30 0 -30 111 0 110 0 -3 -27 -3 -28 -108 0 -107
0 0 -77 0 -77 123 -3 122 -3 3 -27 3 -28 -155 0 -156 0 0 165 0 165 -50 0 -50
0 0 -165 0 -165 -42 0 -43 0 -84 165 c-73 143 -87 165 -107 165 l-24 0 0 -165z
m2343 -446 c105 -54 150 -236 88 -358 -68 -133 -247 -162 -356 -57 -90 86
-100 258 -20 361 61 81 188 104 288 54z m398 17 c59 -10 101 -52 123 -123 7
-21 4 -23 -29 -23 -28 0 -37 5 -44 23 -17 43 -49 62 -107 62 -61 0 -86 -18
-86 -61 0 -38 28 -58 108 -78 37 -9 82 -23 100 -31 68 -28 95 -125 54 -193
-66 -108 -282 -88 -339 31 -29 59 -27 67 14 67 29 0 36 -5 51 -35 9 -20 29
-42 45 -50 33 -17 112 -20 140 -4 29 15 42 57 29 90 -13 30 -33 40 -130 64
-35 9 -77 23 -93 31 -29 16 -57 66 -57 105 0 33 29 86 58 105 28 19 87 33 112
29 8 -2 31 -6 51 -9z m-2031 -31 l0 -35 -125 0 -125 0 0 -70 0 -70 110 0 110
0 0 -35 0 -35 -110 0 -111 0 3 -72 3 -73 123 -3 122 -3 0 -29 0 -30 -160 0
-160 0 0 245 0 245 160 0 160 0 0 -35z m155 -140 c28 -93 53 -176 56 -183 3
-8 29 70 59 173 l55 186 34 -3 35 -3 51 -170 c28 -93 53 -176 56 -183 2 -7 29
70 59 172 l55 186 39 0 c26 0 37 -4 34 -12 -3 -7 -36 -118 -73 -246 l-69 -233
-40 3 -39 3 -51 172 c-28 95 -53 173 -56 173 -3 0 -18 -42 -33 -92 -16 -51
-40 -130 -54 -175 l-25 -83 -39 0 -38 0 -20 68 c-97 326 -121 408 -121 415 0
4 17 7 37 5 l37 -3 51 -170z m1022 156 c51 -23 73 -63 73 -128 0 -60 -29 -109
-75 -129 -20 -8 -67 -14 -115 -14 l-80 0 0 -100 0 -100 -35 0 -35 0 0 245 0
245 113 0 c88 0 121 -4 154 -19z m1116 -784 l82 -3 -87 -2 -88 -2 1 28 c1 22
2 23 6 5 4 -20 11 -22 86 -26z m115 -424 c-10 -2 -26 -2 -35 0 -10 3 -2 5 17
5 19 0 27 -2 18 -5z m-3108 -534 c0 -131 -3 -198 -10 -194 -6 4 -10 82 -10
201 0 123 4 194 10 194 6 0 10 -74 10 -201z m3130 -219 c0 -5 -16 -10 -35 -10
-19 0 -35 5 -35 10 0 6 16 10 35 10 19 0 35 -4 35 -10z"/>
<path d="M2218 5466 c-61 -22 -84 -42 -112 -97 -20 -41 -26 -68 -26 -119 0
-154 76 -240 210 -240 134 0 210 87 210 239 0 170 -131 271 -282 217z m163
-49 c68 -45 99 -164 68 -258 -37 -109 -176 -152 -261 -81 -96 81 -90 273 11
339 25 17 48 23 91 23 43 0 66 -6 91 -23z"/>
<path d="M2221 5408 c-59 -30 -85 -80 -85 -163 0 -113 60 -185 154 -185 56 0
104 28 133 78 23 40 27 139 8 195 -28 81 -129 118 -210 75z"/>
<path d="M2683 5469 c-74 -21 -110 -126 -62 -178 25 -26 48 -36 139 -57 87
-19 120 -48 120 -102 0 -50 -31 -80 -92 -88 -60 -8 -130 22 -153 65 -9 19 -23
31 -35 31 -26 0 -25 -10 3 -50 38 -57 70 -74 146 -78 115 -7 171 35 171 128 0
76 -23 95 -156 130 -89 24 -124 50 -124 92 0 47 39 78 99 78 63 0 98 -16 117
-52 8 -16 23 -28 34 -28 17 0 18 3 9 27 -15 40 -29 54 -74 74 -43 20 -91 23
-142 8z"/>
<path d="M470 5243 l0 -233 145 0 c138 0 145 1 145 20 0 19 -7 20 -125 20
l-125 0 0 90 0 90 110 0 c91 0 110 3 110 15 0 12 -19 15 -110 15 l-110 0 0 90
0 90 125 0 c102 0 125 3 125 14 0 12 -26 16 -145 18 l-145 3 0 -232z"/>
<path d="M820 5472 c0 -4 30 -109 67 -234 65 -221 68 -228 93 -228 24 0 28 8
85 195 32 107 61 195 64 195 5 0 37 -101 108 -342 13 -42 18 -48 41 -48 26 0
28 5 91 218 35 119 66 223 68 230 3 7 -4 12 -19 12 -21 0 -27 -14 -82 -201
-34 -114 -62 -195 -66 -187 -4 7 -32 96 -61 197 -43 145 -58 185 -74 191 -11
4 -23 5 -26 1 -3 -3 -32 -95 -64 -203 -32 -109 -60 -196 -63 -194 -2 2 -29 91
-61 197 -48 159 -62 194 -79 200 -12 5 -22 5 -22 1z"/>
<path d="M1700 5240 c0 -223 1 -230 20 -230 19 0 20 7 20 103 l0 102 88 0
c100 1 142 19 167 71 19 40 19 75 1 119 -22 53 -58 65 -186 65 l-110 0 0 -230z
m238 167 c38 -38 37 -100 -1 -133 -25 -21 -38 -24 -113 -24 l-84 0 0 96 0 97
86 -5 c76 -4 88 -7 112 -31z"/>
<path d="M1750 5345 l0 -75 80 0 c93 0 120 17 120 73 0 59 -30 77 -129 77
l-71 0 0 -75z"/>
<path d="M170 6073 c0 -5 29 -62 65 -128 l64 -120 1 128 0 127 -65 0 c-36 0
-65 -3 -65 -7z"/>
<path d="M945 5969 c19 -61 35 -113 38 -115 4 -4 67 202 67 219 0 4 -31 7 -69
7 l-69 0 33 -111z"/>
<path d="M1236 5968 c19 -62 34 -117 35 -123 0 -11 55 162 65 208 l6 27 -70 0
-70 0 34 -112z"/>
<path d="M1750 6045 l0 -35 73 0 c80 0 116 14 128 48 8 22 8 22 -96 22 l-105
0 0 -35z"/>
<path d="M2136 6064 c-14 -38 -6 -130 17 -174 32 -64 66 -85 137 -85 43 0 66
5 87 21 43 31 73 98 73 165 0 94 8 89 -160 89 -126 0 -149 -2 -154 -16z"/>
<path d="M14 5465 c-3 -6 -3 -109 -2 -230 3 -200 5 -220 21 -223 16 -3 17 12
17 202 0 113 4 207 9 210 5 3 57 -89 117 -204 107 -209 108 -210 141 -210 l33
0 0 230 c0 223 -1 230 -20 230 -19 0 -20 -7 -20 -205 0 -113 -3 -205 -7 -205
-5 0 -55 92 -113 204 -102 200 -105 204 -138 208 -19 2 -36 -1 -38 -7z"/>
<path d="M2980 5455 c0 -12 16 -15 80 -15 l80 0 0 -215 c0 -208 1 -215 20
-215 19 0 20 8 22 213 l3 212 68 3 c51 2 67 6 67 17 0 13 -28 15 -170 15 -144
0 -170 -2 -170 -15z"/>
<path d="M635 4389 c-65 -19 -110 -87 -102 -155 6 -57 38 -99 92 -119 101 -39
195 27 195 137 0 95 -93 165 -185 137z"/>
<path d="M961 4248 c1 -53 3 -63 8 -38 4 25 12 36 31 41 25 7 25 7 -3 8 -23 1
-28 5 -25 23 2 16 12 25 33 29 29 6 29 7 -7 8 l-38 1 1 -72z"/>
<path d="M1283 4250 c0 -49 2 -63 6 -40 8 46 35 48 39 3 2 -18 8 -33 13 -33 8
0 5 29 -7 69 -2 8 -12 11 -24 8 -16 -4 -20 1 -23 32 -2 20 -4 2 -4 -39z"/>
<path d="M1420 4306 c-15 -19 -2 -43 31 -60 36 -17 31 -41 -8 -41 -39 0 -43
-12 -8 -21 55 -14 74 49 22 74 -37 18 -33 48 6 45 15 -1 25 2 22 8 -9 14 -51
11 -65 -5z"/>
<path d="M1846 4298 c-22 -31 -20 -74 4 -98 24 -24 39 -25 65 -6 17 12 16 14
-19 12 -34 -1 -40 2 -48 27 -15 42 14 81 53 73 19 -3 28 -2 24 4 -12 19 -63
11 -79 -12z"/>
<path d="M1036 4253 c-3 -4 -6 -11 -6 -17 0 -6 5 -4 10 4 7 11 10 7 10 -17 0
-17 5 -35 10 -38 6 -4 10 7 10 25 0 26 3 30 19 25 11 -3 22 -1 26 5 3 5 0 11
-7 11 -7 1 -25 3 -40 4 -14 2 -29 1 -32 -2z"/>
<path d="M1137 4254 c-13 -13 -7 -65 7 -70 8 -3 23 -1 33 5 16 9 14 10 -12 11
l-30 1 28 15 c16 8 26 21 24 27 -4 14 -39 21 -50 11z m33 -13 c0 -5 -7 -11
-15 -15 -15 -5 -20 5 -8 17 9 10 23 9 23 -2z"/>
<path d="M1210 4241 c0 -10 7 -21 15 -25 24 -9 18 -28 -6 -21 -15 5 -19 4 -15
-4 10 -15 31 -14 46 3 9 12 7 17 -9 28 -24 15 -28 33 -6 24 8 -3 15 -1 15 4 0
6 -9 10 -20 10 -13 0 -20 -7 -20 -19z"/>
<path d="M1520 4222 c0 -23 4 -42 9 -42 6 0 7 17 4 38 -8 51 -13 53 -13 4z"/>
<path d="M1562 4188 c0 -40 3 -59 5 -41 3 23 10 33 27 37 46 11 37 76 -9 76
-24 0 -25 -2 -23 -72z m46 34 c3 -17 -2 -22 -17 -22 -22 0 -25 8 -15 35 9 22
28 14 32 -13z"/>
<path d="M1675 4252 c-3 -3 -5 -10 -5 -16 0 -6 5 -4 10 4 7 11 10 7 10 -17 0
-40 17 -44 22 -6 4 38 28 42 28 4 0 -16 5 -33 11 -36 16 -10 18 -3 10 35 -6
32 -10 35 -44 36 -20 1 -39 -1 -42 -4z"/>
<path d="M1950 4240 c-8 -14 -8 -26 0 -40 21 -40 67 -11 56 35 -8 31 -41 34
-56 5z m47 -6 c3 -8 -1 -23 -10 -32 -15 -14 -17 -14 -23 1 -8 21 1 47 16 47 6
0 13 -7 17 -16z"/>
<path d="M902 3714 c-42 -29 -18 -104 35 -104 21 0 50 26 40 36 -3 3 -14 0
-25 -7 -17 -10 -23 -10 -36 0 -36 30 -3 87 36 62 26 -16 39 -3 14 15 -25 18
-36 18 -64 -2z"/>
<path d="M560 3664 c0 -34 4 -53 10 -49 6 3 10 16 10 28 0 20 0 20 14 2 14
-19 15 -19 35 -1 21 19 21 19 21 -2 0 -11 5 -24 10 -27 6 -4 10 15 10 49 0 62
-12 71 -35 26 -9 -16 -18 -30 -20 -30 -2 0 -11 14 -20 30 -23 45 -35 36 -35
-26z"/>
<path d="M716 3687 c-7 -19 -17 -45 -21 -58 -7 -23 -7 -23 12 -6 24 21 47 22
63 2 22 -26 23 -8 4 45 -21 58 -38 63 -58 17z m34 -17 c0 -5 -4 -10 -10 -10
-5 0 -10 5 -10 10 0 6 5 10 10 10 6 0 10 -4 10 -10z"/>
<path d="M803 3713 c13 -3 17 -15 17 -54 0 -27 5 -49 10 -49 6 0 10 20 10 45
0 31 5 47 18 54 13 8 7 10 -28 10 -25 -1 -37 -3 -27 -6z"/>
<path d="M1002 3668 c3 -52 20 -69 26 -28 5 30 44 23 52 -10 10 -40 16 -9 9
45 -3 28 -7 40 -7 28 -3 -31 -52 -33 -52 -3 0 11 -7 20 -16 20 -12 0 -14 -10
-12 -52z"/>
<path d="M1141 3668 c-22 -52 -20 -77 3 -45 16 21 39 22 56 2 7 -9 15 -13 18
-11 8 9 -32 106 -44 106 -6 0 -21 -23 -33 -52z m35 -5 c-10 -10 -19 5 -10 18
6 11 8 11 12 0 2 -7 1 -15 -2 -18z"/>
<path d="M1290 3665 c0 -30 5 -55 10 -55 6 0 10 14 10 31 l0 31 19 -23 19 -24
21 25 20 25 1 -33 c0 -20 4 -31 10 -27 6 3 10 28 10 56 0 58 -16 64 -44 16
l-18 -32 -16 33 c-25 51 -42 41 -42 -23z"/>
<path d="M1452 3668 c-24 -56 -22 -70 6 -45 10 10 22 17 27 17 5 0 17 -7 27
-17 10 -9 21 -14 24 -11 8 9 -38 108 -51 108 -6 0 -21 -23 -33 -52z m48 1 c0
-5 -7 -9 -15 -9 -9 0 -12 6 -9 15 6 15 24 11 24 -6z"/>
<path d="M1562 3668 l3 -53 35 0 c45 0 71 39 52 79 -10 22 -18 26 -52 26 l-41
0 3 -52z m63 2 c0 -28 -4 -35 -20 -35 -13 0 -21 8 -23 23 -5 34 5 54 25 50 13
-2 18 -13 18 -38z"/>
<path d="M1682 3668 l3 -53 38 -3 c41 -4 52 15 12 20 -32 4 -37 22 -7 26 12 2
22 7 22 12 0 5 -10 10 -22 12 -29 4 -26 21 4 30 18 5 15 6 -15 7 l-38 1 3 -52z"/>
<path d="M1833 3709 c12 -7 17 -23 17 -55 0 -28 4 -43 10 -39 6 3 10 26 10 50
0 33 4 45 18 48 9 3 -3 5 -28 6 -35 0 -41 -2 -27 -10z"/>
<path d="M1922 3708 c-17 -17 -15 -73 2 -87 25 -21 69 -9 84 22 12 24 11 31
-2 53 -18 26 -63 33 -84 12z m72 -24 c9 -25 -12 -56 -37 -52 -22 3 -33 28 -23
54 7 19 52 18 60 -2z"/>
<path d="M2080 3666 c0 -57 13 -74 24 -33 l6 22 19 -22 c11 -13 21 -23 23 -23
2 0 4 24 3 53 l0 52 -37 3 -38 3 0 -55z m56 33 c10 -17 -13 -36 -27 -22 -12
12 -4 33 11 33 5 0 12 -5 16 -11z"/>
<path d="M2192 3668 c3 -50 5 -53 32 -56 16 -2 33 1 39 7 8 8 2 11 -21 11 -22
0 -32 5 -32 15 0 9 10 15 26 15 14 0 23 4 19 10 -3 6 -15 10 -26 10 -28 0 -19
23 12 31 20 6 17 7 -14 8 l-38 1 3 -52z"/>
<path d="M2290 3665 c0 -30 5 -55 10 -55 6 0 10 11 10 25 0 18 5 25 20 25 11
0 20 5 20 10 0 6 -9 10 -20 10 -30 0 -24 28 8 33 22 3 20 4 -10 6 l-38 1 0
-55z"/>
<path d="M2380 3666 c0 -31 5 -56 10 -56 6 0 10 9 10 20 0 26 14 25 33 -2 8
-13 18 -20 22 -16 4 4 2 15 -5 24 -11 12 -11 17 -1 23 7 5 11 19 9 32 -2 20
-10 25 -40 27 l-38 3 0 -55z m55 24 c0 -22 -29 -18 -33 3 -3 14 1 18 15 15 10
-2 18 -10 18 -18z"/>
<path d="M2482 3668 l3 -53 38 -3 c21 -2 37 1 37 7 0 6 -11 11 -25 11 -16 0
-25 6 -25 15 0 8 9 15 20 15 11 0 20 5 20 10 0 6 -9 10 -20 10 -30 0 -24 28 8
33 19 3 14 4 -16 6 l-43 1 3 -52z"/>
<path d="M2584 3705 c-9 -23 2 -43 27 -47 12 -2 25 -9 27 -17 4 -11 -2 -13
-27 -8 -24 5 -31 3 -28 -6 2 -6 19 -12 38 -12 25 0 35 5 37 18 5 24 -15 47
-40 47 -11 0 -18 5 -15 13 2 7 16 11 31 9 19 -3 26 0 22 7 -11 17 -66 13 -72
-4z"/>
<path d="M2690 3665 c0 -30 5 -55 10 -55 6 0 10 12 10 26 0 21 4 25 23 22 14
-2 23 -11 25 -25 7 -45 22 -22 22 32 0 30 -4 55 -10 55 -5 0 -10 -9 -10 -20 0
-15 -7 -20 -25 -20 -18 0 -25 5 -25 20 0 11 -4 20 -10 20 -5 0 -10 -25 -10
-55z"/>
<path d="M2800 3620 c0 -5 4 -10 9 -10 6 0 13 5 16 10 3 6 -1 10 -9 10 -9 0
-16 -4 -16 -10z"/>
<path d="M1018 3348 c-21 -5 -49 -23 -63 -40 l-25 -30 0 -324 c0 -356 0 -358
61 -390 41 -21 1372 -21 1424 0 63 27 65 39 65 389 0 309 0 315 -22 347 -13
18 -39 39 -58 46 -44 16 -1323 18 -1382 2z m1364 -18 c20 -6 46 -22 58 -37 19
-25 20 -39 20 -335 0 -321 -2 -336 -44 -370 -19 -16 -72 -18 -711 -18 -766 0
-722 -4 -751 66 -20 47 -20 580 -1 627 17 40 38 57 80 67 50 12 1306 12 1349
0z"/>
<path d="M1153 3160 c-26 -11 -38 -43 -25 -67 6 -9 25 -22 44 -29 41 -14 51
-44 14 -44 -14 0 -26 5 -26 10 0 6 -9 10 -20 10 -11 0 -20 -4 -20 -9 0 -20 33
-41 64 -41 77 0 88 85 13 103 -20 5 -37 15 -37 22 0 23 20 28 45 11 31 -21 35
-20 35 4 0 13 -10 24 -26 30 -29 12 -32 12 -61 0z"/>
<path d="M2004 3160 c-48 -20 -35 -80 22 -96 22 -6 39 -17 39 -25 0 -18 -45
-25 -55 -9 -4 7 -15 10 -24 8 -15 -3 -15 -5 -1 -25 32 -45 115 -22 115 31 0
29 -15 42 -57 51 -19 4 -33 13 -33 21 0 20 27 29 45 14 8 -6 21 -10 30 -8 13
2 14 6 3 20 -16 21 -56 30 -84 18z"/>
<path d="M2238 3132 c-3 -35 -5 -37 -38 -37 -32 0 -35 3 -38 33 -2 20 -9 32
-18 32 -11 0 -14 -18 -14 -85 0 -69 3 -85 15 -85 11 0 15 11 15 36 0 35 1 35
38 32 34 -3 37 -6 40 -35 2 -21 9 -33 18 -33 21 0 21 165 0 173 -11 4 -16 -4
-18 -31z"/>
<path d="M1280 3075 c0 -69 3 -85 15 -85 12 0 15 16 15 85 0 69 -3 85 -15 85
-12 0 -15 -16 -15 -85z"/>
<path d="M1350 3075 c0 -67 3 -85 14 -85 8 0 16 12 18 27 2 22 10 29 37 34 38
8 51 23 51 59 0 38 -18 50 -72 50 l-48 0 0 -85z m87 39 c7 -18 -14 -35 -37
-31 -8 1 -16 12 -18 25 -3 18 1 22 23 22 14 0 28 -7 32 -16z"/>
<path d="M1550 3075 c0 -67 3 -85 14 -85 9 0 16 12 18 33 3 28 7 32 36 35 43
4 43 30 0 34 -22 2 -34 9 -36 21 -3 14 4 17 37 17 30 0 41 4 41 15 0 12 -13
15 -55 15 l-55 0 0 -85z"/>
<path d="M1680 3074 c0 -76 2 -85 18 -82 11 2 18 14 20 36 4 41 12 40 40 -3
12 -19 29 -35 38 -35 9 0 14 3 12 8 -2 4 -10 19 -17 34 -12 23 -11 29 3 43 19
19 20 38 6 66 -9 15 -22 19 -65 19 l-55 0 0 -86z m74 60 c27 -10 20 -44 -9
-44 -20 0 -25 5 -25 25 0 26 7 29 34 19z"/>
<path d="M1840 3075 l0 -85 55 0 c42 0 55 3 55 15 0 10 -11 15 -35 15 -28 0
-35 4 -35 20 0 16 7 20 30 20 20 0 30 5 30 15 0 10 -10 15 -30 15 -23 0 -30 4
-30 20 0 16 7 20 35 20 24 0 35 5 35 15 0 12 -13 15 -55 15 l-55 0 0 -85z"/>
<path d="M1290 2876 c0 -8 10 -16 23 -18 20 -3 22 -10 27 -72 7 -98 28 -100
32 -4 3 67 5 73 26 76 12 2 22 10 22 18 0 11 -15 14 -65 14 -50 0 -65 -3 -65
-14z"/>
<path d="M1466 2869 c-20 -16 -26 -29 -26 -59 0 -52 8 -68 41 -85 40 -21 57
-19 90 14 79 79 -17 199 -105 130z m84 -25 c18 -20 17 -74 -1 -85 -54 -34
-106 34 -62 83 20 22 46 23 63 2z"/>
<path d="M1637 2883 c-4 -3 -7 -42 -7 -85 l0 -78 54 0 c47 0 57 4 75 26 36 46
27 105 -20 129 -29 15 -90 20 -102 8z m88 -37 c22 -16 25 -74 4 -87 -8 -5 -24
-9 -36 -9 -21 0 -23 5 -23 48 0 65 15 78 55 48z"/>
<path d="M1822 2806 c-18 -45 -32 -86 -32 -90 0 -16 32 -4 37 14 4 16 14 20
43 20 29 0 39 -4 43 -20 5 -20 37 -29 37 -10 0 6 -14 47 -31 90 -41 107 -55
107 -97 -4z m67 -13 c1 -14 -25 -18 -32 -5 -3 4 0 18 5 32 10 24 11 24 18 5 5
-11 9 -26 9 -32z"/>
<path d="M1950 2883 c0 -5 12 -26 25 -48 16 -26 25 -55 25 -83 0 -36 3 -43 18
-40 12 2 19 16 22 43 3 22 15 59 28 82 26 50 27 53 7 53 -9 0 -24 -13 -33 -30
-21 -37 -27 -37 -42 0 -8 18 -20 30 -31 30 -11 0 -19 -3 -19 -7z"/>
<path d="M1900 2179 c0 -5 5 -7 10 -4 6 3 10 8 10 11 0 2 -4 4 -10 4 -5 0 -10
-5 -10 -11z"/>
<path d="M1725 2110 c-10 -11 -14 -20 -8 -20 5 0 18 9 28 20 10 11 14 20 8 20
-5 0 -18 -9 -28 -20z"/>
<path d="M1665 1904 c-5 -2 -9 -30 -9 -62 2 -67 2 -126 2 -327 0 -323 0 -334
22 -353 11 -9 33 -20 48 -23 25 -5 24 -6 -13 -13 -22 -4 -46 -9 -52 -11 -17
-6 -16 -46 2 -69 22 -29 19 -33 -22 -41 l-38 -7 70 -23 c49 -15 64 -24 50 -27
-14 -4 -12 -6 10 -7 51 -1 195 35 195 49 0 4 8 10 18 13 12 2 22 17 26 38 5
27 9 31 16 19 8 -12 10 -10 10 8 0 19 -3 21 -19 12 -26 -13 -31 -13 -31 5 0 8
4 15 8 15 4 0 13 18 19 40 11 44 2 51 -38 29 -11 -5 -28 -8 -37 -6 -13 3 -11
6 10 15 29 12 38 40 44 136 1 34 4 61 5 61 2 0 6 27 15 105 4 36 10 70 15 76
5 5 7 49 5 97 -2 65 -7 91 -20 106 -16 17 -16 19 0 25 12 5 14 9 5 20 -6 7 -9
15 -6 17 2 3 -28 6 -68 8 -40 1 -73 7 -75 12 -2 5 -9 9 -15 9 -7 1 -23 14 -37
30 -20 25 -31 30 -65 29 -22 0 -44 -2 -50 -5z"/>
<path d="M1583 1804 c-3 -8 -1 -20 5 -26 16 -16 42 -2 42 22 0 24 -38 28 -47
4z"/>
<path d="M1060 745 c0 -37 4 -65 10 -65 6 0 10 11 10 25 0 20 5 25 24 25 14 0
28 5 31 10 4 6 -7 10 -24 10 -24 0 -31 4 -31 20 0 16 7 20 30 20 17 0 30 5 30
10 0 6 -18 10 -40 10 l-40 0 0 -65z"/>
<path d="M1170 746 c0 -37 4 -66 10 -66 6 0 10 11 10 25 0 33 13 32 38 -2 11
-16 24 -25 28 -21 4 4 1 15 -6 23 -11 13 -11 20 1 41 18 35 2 58 -45 62 l-36
3 0 -65z m65 24 c0 -22 -39 -19 -43 3 -3 15 1 18 20 15 12 -2 23 -10 23 -18z"/>
<path d="M1290 745 l0 -65 39 0 c22 0 43 5 46 10 4 6 -8 10 -30 10 -29 0 -36
3 -33 18 2 9 14 19 28 21 l25 4 -25 6 c-14 4 -26 15 -28 24 -3 13 4 17 27 17
17 0 31 5 31 10 0 6 -18 10 -40 10 l-40 0 0 -65z"/>
<path d="M1404 796 c-10 -27 1 -50 26 -56 27 -6 41 -40 16 -40 -8 0 -18 5 -21
10 -9 15 -25 12 -25 -5 0 -19 48 -31 69 -18 9 6 16 21 16 34 0 18 -8 25 -32
33 -48 13 -44 40 4 31 33 -6 35 -5 24 9 -17 20 -70 21 -77 2z"/>
<path d="M1516 803 c-3 -3 -6 -33 -6 -65 0 -43 3 -59 13 -56 6 3 13 17 15 32
3 23 8 27 30 24 21 -2 28 -9 30 -30 6 -54 22 -27 22 37 0 64 -16 91 -22 38 -2
-22 -9 -29 -30 -31 -24 -3 -28 0 -28 22 0 25 -12 41 -24 29z"/>
<path d="M1704 796 c-11 -29 1 -50 34 -58 17 -5 32 -13 32 -19 0 -15 -30 -23
-43 -10 -15 15 -27 14 -27 -4 0 -19 48 -31 69 -18 9 6 17 20 19 31 3 16 -5 25
-32 36 -49 20 -48 40 1 31 33 -6 35 -5 24 9 -17 20 -70 21 -77 2z"/>
<path d="M1820 745 c0 -37 4 -65 10 -65 6 0 10 28 10 65 0 37 -4 65 -10 65 -6
0 -10 -28 -10 -65z"/>
<path d="M1870 745 c0 -37 4 -65 10 -65 6 0 10 8 10 19 0 13 9 20 29 24 37 8
56 39 41 67 -8 15 -21 20 -50 20 l-40 0 0 -65z m70 25 c0 -13 -7 -20 -19 -20
-22 0 -35 15 -26 30 12 19 45 11 45 -10z"/>
<path d="M2050 790 c-11 -11 -20 -31 -20 -45 0 -29 32 -65 58 -65 23 0 59 26
50 36 -4 4 -14 1 -22 -5 -19 -16 -53 -5 -61 19 -13 42 33 78 63 48 17 -17 28
-2 12 17 -17 21 -56 19 -80 -5z"/>
<path d="M2176 788 c-22 -31 -20 -64 4 -88 39 -39 100 -12 100 44 0 61 -72 91
-104 44z m74 -12 c28 -35 -11 -93 -47 -70 -36 22 -23 84 17 84 10 0 23 -7 30
-14z"/>
<path d="M2305 690 c3 -5 10 -10 16 -10 5 0 9 5 9 10 0 6 -7 10 -16 10 -8 0
-12 -4 -9 -10z"/>
<path d="M780 510 c-25 -25 -26 -81 -2 -103 19 -17 37 -21 87 -19 29 2 31 4
33 48 1 36 -3 50 -23 70 -29 29 -68 31 -95 4z"/>
<path d="M524 495 c-6 -24 16 -66 50 -94 20 -17 57 8 81 53 16 29 17 37 6 50
-16 19 -42 21 -58 5 -8 -8 -13 -8 -17 0 -4 6 -18 11 -31 11 -18 0 -26 -7 -31
-25z"/>
<path d="M1126 505 c-3 -8 -12 -15 -20 -15 -21 0 -56 -48 -56 -77 l0 -24 26
20 c35 27 54 27 54 -1 0 -21 3 -20 37 14 l37 38 -29 30 c-33 34 -40 36 -49 15z"/>
<path d="M2750 390 c0 -54 3 -70 14 -70 8 0 18 5 22 11 6 11 32 9 67 -6 15 -6
17 0 17 64 l0 71 -60 0 -60 0 0 -70z"/>
<path d="M371 188 c1 -24 3 -36 6 -27 2 10 14 20 26 24 l22 8 -22 4 c-13 2
-23 8 -23 13 0 5 10 11 23 13 19 4 18 4 -5 6 -27 1 -28 -1 -27 -41z"/>
<path d="M600 190 c0 -22 5 -40 10 -40 6 0 10 11 10 25 0 34 18 32 23 -2 4
-26 4 -26 6 5 1 22 -3 32 -14 32 -8 0 -15 5 -15 10 0 6 -4 10 -10 10 -5 0 -10
-18 -10 -40z"/>
<path d="M1218 220 c-8 -25 4 -70 19 -70 12 0 13 3 3 15 -6 8 -9 19 -5 24 3 6
2 18 -3 27 -7 13 -11 13 -14 4z"/>
<path d="M1712 193 c4 -45 24 -55 21 -11 -2 48 -2 48 -14 48 -6 0 -9 -16 -7
-37z"/>
<path d="M1822 190 c1 -29 2 -35 5 -17 5 34 23 36 23 2 0 -14 5 -25 10 -25 18
0 11 50 -7 57 -10 4 -21 11 -25 17 -4 6 -7 -9 -6 -34z"/>
<path d="M1978 223 c6 -2 12 -20 12 -39 0 -21 4 -33 10 -29 6 3 10 19 10 35 0
15 6 31 13 33 6 3 -4 5 -23 5 -19 0 -29 -2 -22 -5z"/>
<path d="M2150 221 c0 -5 -9 -11 -21 -14 -29 -8 -22 -51 9 -55 20 -3 22 1 22
37 0 23 -2 41 -5 41 -3 0 -5 -4 -5 -9z m-5 -51 c-5 -8 -11 -8 -17 -2 -6 6 -7
16 -3 22 5 8 11 8 17 2 6 -6 7 -16 3 -22z"/>
<path d="M2302 205 c0 -16 2 -22 5 -12 2 9 2 23 0 30 -3 6 -5 -1 -5 -18z"/>
<path d="M430 179 c0 -35 15 -31 22 6 4 17 1 25 -8 25 -9 0 -14 -11 -14 -31z"/>
<path d="M474 196 c-3 -9 -4 -23 0 -31 6 -17 42 -20 52 -4 4 8 0 9 -15 4 -12
-4 -21 -2 -21 4 0 6 9 11 21 11 27 0 19 24 -9 28 -13 2 -25 -3 -28 -12z"/>
<path d="M547 203 c-12 -11 -8 -23 7 -23 8 0 18 -5 22 -12 5 -8 0 -9 -14 -6
-12 4 -20 2 -16 -3 7 -12 31 -11 39 2 4 6 -1 17 -11 25 -18 14 -18 14 0 7 13
-4 17 -3 12 5 -8 13 -29 16 -39 5z"/>
<path d="M670 199 c0 -7 8 -18 18 -26 16 -14 16 -14 0 -9 -10 3 -18 1 -18 -4
0 -13 37 -13 45 -1 3 5 1 12 -4 16 -6 3 -8 12 -4 20 3 10 -2 15 -16 15 -12 0
-21 -5 -21 -11z"/>
<path d="M732 180 c0 -19 2 -27 5 -17 2 9 2 25 0 35 -3 9 -5 1 -5 -18z"/>
<path d="M760 168 c0 -24 4 -38 8 -32 4 6 15 13 25 17 26 10 18 51 -10 55 -21
3 -23 -1 -23 -40z m32 0 c-15 -15 -26 -4 -18 18 5 13 9 15 18 6 9 -9 9 -15 0
-24z"/>
<path d="M831 178 c2 -31 2 -31 6 -5 5 34 23 36 23 2 0 -14 5 -25 10 -25 6 0
10 6 10 14 0 28 -12 46 -31 46 -15 0 -19 -7 -18 -32z"/>
<path d="M894 195 c-12 -32 23 -63 40 -36 3 5 -2 8 -12 7 -9 0 -17 6 -17 14 0
8 8 14 17 14 10 -1 15 2 12 7 -8 14 -34 10 -40 -6z"/>
<path d="M960 195 c-11 -13 -11 -19 3 -32 21 -21 49 -9 45 19 -4 28 -30 35
-48 13z m35 -15 c0 -7 -6 -15 -12 -17 -8 -3 -13 4 -13 17 0 13 5 20 13 18 6
-3 12 -11 12 -18z"/>
<path d="M1086 202 c-3 -4 -4 -22 -4 -40 1 -27 5 -32 25 -32 20 0 23 5 23 40
0 33 -3 40 -19 40 -11 0 -22 -4 -25 -8z m34 -16 c0 -8 -4 -17 -9 -21 -12 -7
-24 12 -16 25 9 15 25 12 25 -4z m-3 -42 c-3 -3 -12 -4 -19 -1 -8 3 -5 6 6 6
11 1 17 -2 13 -5z"/>
<path d="M1154 196 c-13 -33 23 -65 41 -36 3 5 0 7 -8 4 -8 -3 -18 -1 -22 5
-3 7 3 11 15 11 13 0 20 5 18 13 -7 18 -37 21 -44 3z m33 -2 c-3 -3 -12 -4
-19 -1 -8 3 -5 6 6 6 11 1 17 -2 13 -5z"/>
<path d="M1291 183 c5 -14 8 -32 5 -40 -3 -7 -1 -13 4 -13 11 0 34 69 26 77
-3 4 -6 -1 -6 -10 0 -9 -4 -17 -10 -17 -5 0 -10 7 -10 15 0 8 -4 15 -10 15 -6
0 -6 -10 1 -27z"/>
<path d="M1350 195 c-11 -13 -11 -19 3 -32 21 -21 49 -9 45 19 -4 28 -30 35
-48 13z m35 -15 c0 -7 -6 -15 -12 -17 -8 -3 -13 4 -13 17 0 13 5 20 13 18 6
-3 12 -11 12 -18z"/>
<path d="M1417 202 c-13 -19 2 -52 24 -52 23 0 34 23 23 48 -6 14 -8 12 -12
-10 -2 -16 -7 -28 -12 -28 -5 0 -10 12 -12 28 -2 18 -6 23 -11 14z"/>
<path d="M1481 178 c1 -22 3 -26 6 -13 3 11 10 26 15 33 8 9 6 12 -6 12 -12 0
-16 -9 -15 -32z"/>
<path d="M1551 177 c1 -21 3 -25 6 -12 8 34 23 41 23 12 0 -15 5 -27 10 -27 6
0 10 11 10 25 0 34 18 32 23 -2 4 -27 4 -27 6 3 1 30 -1 32 -39 32 -39 1 -40
0 -39 -31z"/>
<path d="M1650 200 c0 -5 6 -7 13 -4 7 2 13 -4 14 -16 1 -11 -3 -20 -8 -20 -6
0 -7 5 -3 11 4 7 2 10 -5 8 -23 -8 -16 -24 12 -27 28 -3 34 9 21 42 -7 17 -44
22 -44 6z"/>
<path d="M1754 195 c-12 -32 23 -63 40 -36 3 5 -2 8 -12 7 -9 0 -17 6 -17 14
0 8 8 14 17 14 10 -1 15 2 12 7 -8 14 -34 10 -40 -6z"/>
<path d="M1884 199 c-5 -8 -2 -11 7 -7 10 4 15 -1 16 -13 1 -10 -3 -19 -8 -19
-6 0 -7 5 -4 10 3 6 1 10 -4 10 -6 0 -11 -7 -11 -15 0 -9 10 -15 26 -15 22 0
25 4 22 27 -3 30 -31 43 -44 22z"/>
<path d="M2044 195 c-8 -21 2 -45 19 -45 8 0 20 7 27 15 10 12 10 18 0 30 -7
8 -19 15 -27 15 -7 0 -16 -7 -19 -15z m36 -15 c0 -11 -4 -20 -9 -20 -14 0 -23
18 -16 30 10 17 25 11 25 -10z"/>
<path d="M2185 201 c-3 -6 0 -9 7 -6 9 4 14 -2 15 -15 1 -11 -3 -20 -8 -20 -6
0 -7 5 -4 10 3 6 1 10 -4 10 -6 0 -11 -7 -11 -15 0 -9 10 -15 26 -15 22 0 25
4 22 27 -3 28 -30 43 -43 24z"/>
<path d="M2241 200 c-1 -8 3 -22 9 -30 5 -9 5 -19 -2 -27 -7 -9 -7 -13 1 -13
14 0 45 69 36 78 -3 3 -9 -4 -12 -17 l-6 -23 -13 23 c-8 15 -13 18 -13 9z"/>
</g>
</svg>
