<?xml version="1.0" standalone="no"?>
<!DOCTYPE svg PUBLIC "-//W3C//DTD SVG 20010904//EN"
 "http://www.w3.org/TR/2001/REC-SVG-20010904/DTD/svg10.dtd">
<svg version="1.0" xmlns="http://www.w3.org/2000/svg"
 width="552.000000pt" height="727.000000pt" viewBox="0 0 552.000000 727.000000"
 preserveAspectRatio="xMidYMid meet">

<g transform="translate(0.000000,727.000000) scale(0.100000,-0.100000)"
fill="#000000" stroke="none">
<path d="M0 6655 c0 -486 3 -613 13 -609 9 3 12 -8 12 -36 0 -23 -1 -37 -3
-31 -2 6 -7 11 -12 11 -9 0 -1 -89 11 -110 5 -10 8 -11 9 -2 0 19 20 14 21 -5
0 -14 2 -15 6 -3 3 8 14 23 24 34 14 15 21 16 32 7 12 -9 13 -6 9 16 -4 22 -2
25 12 20 9 -4 25 -2 35 5 16 10 32 -4 127 -101 127 -132 150 -164 171 -234 8
-29 22 -60 30 -69 10 -11 15 -37 14 -78 0 -51 3 -65 22 -84 13 -13 21 -28 19
-34 -5 -15 34 -16 43 -2 3 6 16 10 28 10 12 0 51 14 87 32 63 30 64 31 35 37
-37 8 -29 13 77 52 46 16 92 38 103 49 19 20 19 20 -8 20 -46 0 -28 15 137
110 24 14 55 39 69 56 14 16 41 35 59 41 18 6 57 20 86 31 29 11 92 30 140 41
48 11 110 27 137 36 28 9 84 20 126 25 41 5 87 12 102 15 21 6 27 4 27 -10 0
-11 6 -15 18 -11 63 20 237 48 290 46 53 -1 82 6 180 44 64 25 131 48 147 52
17 3 55 14 85 24 113 36 127 40 146 40 10 0 31 6 45 14 14 7 51 17 82 20 31 4
59 12 62 17 4 5 17 9 29 9 13 0 34 8 47 18 23 17 212 52 281 52 28 0 50 21 30
28 -7 2 -12 10 -12 18 0 8 -7 14 -15 14 -8 0 -16 6 -17 13 -3 26 -5 33 -21 71
-9 21 -17 50 -17 65 -1 14 -9 64 -18 110 -16 78 -16 94 -3 205 9 67 19 123 23
124 4 2 8 13 7 25 0 21 -1 21 -9 2 -8 -19 -9 -19 -9 2 -1 12 3 33 9 48 9 23
12 24 31 14 16 -8 23 -8 29 1 5 8 18 10 40 5 29 -6 32 -5 28 12 -5 18 0 20 43
19 27 -1 49 -5 49 -9 0 -5 5 -5 10 -2 6 4 8 10 5 15 -5 9 15 27 30 26 6 -1 26
-9 47 -19 35 -16 74 -14 62 4 -3 5 2 9 11 9 9 0 13 5 10 10 -8 14 41 13 67 -1
13 -7 23 -7 27 -2 11 18 51 34 64 26 6 -4 17 -8 22 -8 6 0 30 -10 55 -22 61
-30 103 -47 113 -45 4 1 7 -1 7 -6 0 -4 14 -13 32 -21 28 -13 32 -12 44 4 11
15 18 16 44 7 24 -9 29 -8 23 1 -15 24 -11 67 7 77 13 7 20 6 23 -3 4 -8 6 -8
6 0 1 6 9 9 20 6 10 -2 25 3 34 11 14 15 17 15 25 0 7 -13 15 -15 38 -7 24 8
35 5 73 -21 53 -36 81 -41 81 -14 0 36 48 31 88 -9 15 -14 52 -18 52 -5 0 4
-5 13 -12 20 -9 9 -5 12 17 13 17 1 33 1 37 0 4 0 4 7 1 17 -7 16 -5 16 18 1
17 -12 31 -14 48 -7 17 6 27 5 33 -4 6 -10 8 -10 8 0 0 13 32 17 44 5 4 -4 37
-8 74 -8 37 0 75 -4 84 -8 13 -7 16 -5 11 12 -4 16 -1 21 16 21 11 0 21 -3 21
-7 0 -5 33 -8 73 -8 53 0 79 -5 100 -19 28 -18 28 -18 34 3 5 20 7 21 30 6 21
-14 25 -14 40 0 14 15 17 14 38 -5 22 -21 44 -13 30 10 -4 6 12 1 34 -11 23
-12 48 -19 56 -15 8 3 17 0 21 -5 3 -6 12 -2 21 10 14 21 24 21 87 4 17 -5 18
-1 13 26 -4 20 -3 30 3 26 6 -3 10 -16 10 -28 0 -20 2 -19 15 7 10 19 15 58
15 122 l0 94 -2760 0 -2760 0 0 -615z m2571 -367 c45 -65 61 -66 34 -2 -8 20
-14 39 -12 40 2 2 17 -13 33 -33 16 -20 37 -46 47 -57 17 -21 17 -21 11 8 -5
21 -4 27 5 22 7 -4 18 -3 26 4 16 13 25 2 20 -26 -2 -10 -4 -25 -4 -33 -1 -8
-7 -11 -16 -7 -9 3 -23 2 -33 -3 -9 -5 -36 -15 -59 -22 -45 -13 -57 -29 -23
-29 11 0 20 -5 20 -11 0 -8 4 -8 15 1 8 6 22 10 32 7 16 -4 16 -5 -2 -11 -11
-4 -30 -13 -42 -19 -19 -8 -26 -7 -41 10 -17 21 -18 21 -41 2 l-23 -19 33 0
34 -1 -25 -14 c-14 -7 -60 -20 -101 -29 -42 -9 -84 -18 -93 -22 -9 -3 -16 -1
-16 5 0 13 35 33 43 24 4 -3 10 2 13 11 5 14 9 15 15 5 4 -8 11 -10 15 -6 6 6
-3 49 -23 106 -3 9 6 3 20 -14 28 -31 35 -28 16 7 -17 32 -2 33 25 2 25 -29
25 -29 26 -5 0 21 2 22 17 10 14 -12 16 -12 11 2 -3 9 -2 22 3 30 6 10 9 10 9
2 0 -7 7 -13 15 -13 21 0 19 23 -10 82 -14 28 -25 53 -25 55 0 12 15 -5 51
-59z m481 -40 c-4 -4 -29 -10 -57 -13 -27 -4 -58 -9 -67 -11 -13 -4 -18 0 -18
13 0 11 3 14 8 7 10 -15 52 1 52 20 0 17 -27 46 -43 46 -8 0 -7 4 1 12 10 10
16 7 28 -10 21 -30 34 -28 28 6 -4 25 -2 24 35 -18 22 -25 37 -48 33 -52z
m-177 72 c3 -5 -1 -10 -9 -10 -9 0 -16 5 -16 10 0 6 4 10 9 10 6 0 13 -4 16
-10z m-831 -73 c15 -21 26 -41 23 -44 -10 -10 -27 8 -47 50 -32 65 -27 64 24
-6z m127 -86 c7 -2 7 4 -1 19 -20 38 -3 33 24 -6 14 -21 24 -40 22 -42 -2 -2
-21 0 -41 4 -28 5 -40 14 -53 40 -8 19 -21 34 -28 34 -14 0 -24 23 -24 58 0
22 6 17 45 -39 25 -35 50 -66 56 -68z m-252 31 c34 -45 61 -84 61 -87 0 -3 -6
-5 -14 -5 -11 0 -67 86 -114 175 -11 20 7 -2 67 -83z m1201 79 c0 -9 -24 -21
-42 -21 -6 0 -6 6 2 15 14 16 40 20 40 6z m-375 -91 c-3 -5 -12 -10 -18 -10
-7 0 -6 4 3 10 19 12 23 12 15 0z m-2693 -25 c-2 -14 -8 -25 -13 -25 -12 0
-11 7 1 31 14 26 18 24 12 -6z m1949 -27 c8 -16 8 -19 -2 -16 -6 2 -16 14 -20
27 -11 27 6 19 22 -11z m-1888 -47 c-3 -10 1 -30 7 -42 9 -19 6 -17 -13 6 -18
22 -22 33 -15 43 15 18 27 15 21 -7z m1822 -40 c-11 -10 -35 11 -35 30 0 21 0
21 19 -2 11 -13 18 -26 16 -28z m115 29 c0 -5 -2 -10 -4 -10 -3 0 -8 5 -11 10
-3 6 -1 10 4 10 6 0 11 -4 11 -10z m-295 -50 c32 -47 45 -50 45 -14 l0 27 28
-29 c18 -19 25 -33 19 -41 -5 -7 -14 -10 -20 -6 -7 4 -25 6 -42 4 -27 -2 -32
2 -44 36 -8 21 -16 44 -18 51 -9 23 4 12 32 -28z m-1690 -10 c-4 -12 -9 -19
-12 -17 -3 3 -2 15 2 27 4 12 9 19 12 17 3 -3 2 -15 -2 -27z m35 16 c0 -3 -4
-8 -10 -11 -5 -3 -10 -1 -10 4 0 6 5 11 10 11 6 0 10 -2 10 -4z m70 -12 c0 -8
-5 -12 -10 -9 -6 4 -8 11 -5 16 9 14 15 11 15 -7z m1498 -41 c12 -13 22 -26
22 -28 0 -2 -17 -9 -37 -14 -38 -11 -53 -3 -53 28 0 11 4 10 19 -3 12 -11 21
-14 26 -7 3 6 2 11 -4 11 -6 0 -8 6 -5 14 3 8 1 17 -5 21 -6 3 -11 14 -10 23
0 15 2 14 12 -2 7 -11 22 -30 35 -43z m592 43 c0 -2 -7 -7 -16 -10 -8 -3 -12
-2 -9 4 6 10 25 14 25 6z m-2090 -36 c0 -5 -4 -10 -10 -10 -5 0 -10 5 -10 10
0 6 5 10 10 10 6 0 10 -4 10 -10z m1850 -11 c0 -5 -7 -9 -15 -9 -9 0 -12 6 -9
15 6 15 24 11 24 -6z m-280 -10 c0 -5 -6 -9 -13 -9 -8 0 -14 6 -14 14 0 8 6
12 14 9 7 -3 13 -9 13 -14z m-1636 -1 c-12 -22 -37 -48 -44 -48 -11 0 -7 33 5
47 14 17 48 17 39 1z m1801 2 c3 -5 -1 -10 -9 -10 -9 0 -16 5 -16 10 0 6 4 10
9 10 6 0 13 -4 16 -10z m-615 -51 c0 -6 -4 -7 -10 -4 -5 3 -10 11 -10 16 0 6
5 7 10 4 6 -3 10 -11 10 -16z m246 -4 c-11 -8 -22 -12 -25 -9 -6 6 19 24 34
24 6 -1 1 -7 -9 -15z m-959 -287 c-3 -8 -6 -5 -6 6 -1 11 2 17 5 13 3 -3 4
-12 1 -19z m258 -68 c-3 -5 -11 -10 -16 -10 -6 0 -7 5 -4 10 3 6 11 10 16 10
6 0 7 -4 4 -10z m-215 -115 c0 -8 -4 -15 -10 -15 -5 0 -7 7 -4 15 4 8 8 15 10
15 2 0 4 -7 4 -15z"/>
<path d="M2715 6260 c-3 -5 -1 -10 4 -10 6 0 11 5 11 10 0 6 -2 10 -4 10 -3 0
-8 -4 -11 -10z"/>
<path d="M5504 6982 c-19 -11 -22 -67 -4 -67 10 0 15 12 17 38 0 20 0 37 0 37
-1 0 -7 -4 -13 -8z"/>
<path d="M3556 6917 c-26 -51 -78 -290 -69 -313 11 -29 -88 -161 -110 -147 -6
4 -7 1 -2 -6 5 -9 16 -5 38 16 64 58 95 111 93 161 0 17 1 32 4 32 4 0 12 39
18 88 24 161 52 218 72 144 19 -72 137 -224 182 -235 16 -4 17 -3 7 9 -9 11
-8 15 4 20 8 3 40 37 71 76 32 39 58 64 60 56 2 -7 13 -46 25 -87 21 -76 56
-132 92 -152 11 -6 2 8 -20 30 -22 22 -43 53 -47 68 -3 16 -12 49 -19 75 -8
26 -12 75 -10 109 l3 62 -40 -72 c-22 -40 -62 -95 -89 -123 -49 -50 -50 -51
-72 -32 -68 58 -120 148 -141 247 -9 40 -21 34 -50 -26z"/>
<path d="M3180 6940 c0 -5 5 -10 10 -10 6 0 10 5 10 10 0 6 -4 10 -10 10 -5 0
-10 -4 -10 -10z"/>
<path d="M5467 6780 c-3 -13 0 -20 8 -20 21 0 27 16 11 29 -11 9 -15 7 -19 -9z"/>
<path d="M5503 6740 c-8 -18 -7 -29 1 -39 9 -12 12 -11 14 7 2 12 2 30 -1 40
-3 14 -6 12 -14 -8z"/>
<path d="M4369 6723 c-40 -25 -61 -68 -65 -136 l-3 -62 9 57 c11 66 32 113 58
126 41 22 92 23 135 4 61 -27 81 -54 74 -96 -10 -63 -36 -103 -80 -125 -23
-12 -35 -21 -27 -21 29 0 79 40 98 77 45 90 34 126 -48 168 -57 29 -113 32
-151 8z"/>
<path d="M5470 6586 c0 -28 12 -46 31 -46 32 0 21 40 -13 53 -12 4 -18 2 -18
-7z"/>
<path d="M5471 6444 c0 -11 3 -14 6 -6 3 7 2 16 -1 19 -3 4 -6 -2 -5 -13z"/>
<path d="M5470 6405 c0 -9 9 -15 21 -15 17 0 20 -5 17 -25 -3 -14 -1 -25 3
-25 11 0 12 41 1 56 -13 19 -42 25 -42 9z"/>
<path d="M4730 6400 c-8 -5 -10 -10 -5 -10 6 0 17 5 25 10 8 5 11 10 5 10 -5
0 -17 -5 -25 -10z"/>
<path d="M4680 6365 c-13 -14 -22 -27 -19 -29 2 -2 14 10 27 25 29 36 24 38
-8 4z"/>
<path d="M4949 6302 c-3 -20 -2 -29 4 -23 5 5 7 19 5 32 -3 20 -5 19 -9 -9z"/>
<path d="M5490 6209 c0 -34 3 -39 13 -30 19 15 20 71 1 71 -10 0 -14 -12 -14
-41z"/>
<path d="M5511 6134 c0 -11 3 -14 6 -6 3 7 2 16 -1 19 -3 4 -6 -2 -5 -13z"/>
<path d="M5490 6056 c0 -8 5 -18 10 -21 6 -3 7 -17 4 -31 -4 -14 -2 -24 5 -24
13 0 14 14 5 59 -7 31 -24 44 -24 17z"/>
<path d="M4988 5973 c7 -3 16 -2 19 1 4 3 -2 6 -13 5 -11 0 -14 -3 -6 -6z"/>
<path d="M142 5910 c0 -14 2 -19 5 -12 2 6 2 18 0 25 -3 6 -5 1 -5 -13z"/>
<path d="M5500 5860 c0 -22 5 -40 10 -40 6 0 10 18 10 40 0 22 -4 40 -10 40
-5 0 -10 -18 -10 -40z"/>
<path d="M78 5857 c-4 -20 12 -48 27 -47 27 1 33 -4 38 -27 3 -16 0 -32 -6
-36 -8 -6 -7 -7 3 -4 24 6 25 56 1 76 -12 10 -21 28 -21 40 0 30 -36 28 -42
-2z"/>
<path d="M4694 5858 l-19 -23 23 19 c21 18 27 26 19 26 -2 0 -12 -10 -23 -22z"/>
<path d="M0 5790 c0 -26 4 -30 27 -30 21 0 24 3 15 12 -7 7 -12 20 -12 30 0
10 -7 18 -15 18 -10 0 -15 -10 -15 -30z"/>
<path d="M4600 5789 c0 -5 5 -7 10 -4 6 3 10 8 10 11 0 2 -4 4 -10 4 -5 0 -10
-5 -10 -11z"/>
<path d="M5511 5775 c-2 -16 -3 -36 -2 -43 1 -6 -11 -18 -26 -24 -31 -14 -83
-64 -75 -73 3 -3 -2 -5 -10 -5 -8 0 -26 -10 -39 -23 -13 -12 -37 -29 -54 -37
-16 -8 -46 -29 -66 -46 -20 -17 -53 -37 -74 -44 -20 -7 -49 -18 -63 -26 -15
-8 -38 -14 -51 -14 -34 0 -103 -21 -123 -38 -9 -8 -21 -11 -26 -8 -5 3 -33 -2
-63 -10 -109 -32 -126 -34 -254 -38 -71 -3 -143 -8 -158 -12 -20 -5 -27 -3
-25 7 5 20 -69 41 -149 43 -39 0 -69 4 -66 9 2 4 -5 7 -17 7 -12 0 -34 7 -50
15 -25 13 -30 13 -44 0 -8 -8 -19 -15 -24 -15 -5 0 -15 -13 -22 -30 -7 -16
-16 -30 -19 -30 -4 0 -18 -19 -30 -41 -19 -34 -21 -43 -10 -50 10 -6 5 -9 -17
-9 -18 0 -38 -8 -49 -20 -10 -11 -25 -20 -33 -20 -9 0 -13 -3 -9 -6 7 -8 -232
-205 -310 -255 -18 -12 -33 -25 -33 -30 0 -5 -11 -9 -24 -9 -14 0 -32 -10 -40
-22 -13 -18 -27 -23 -77 -25 -63 -4 -71 -8 -172 -85 -38 -29 -58 -38 -89 -38
-35 0 -41 -4 -51 -30 -6 -16 -18 -30 -27 -30 -8 0 -31 -13 -50 -28 -19 -16
-42 -31 -52 -35 -9 -3 -35 -42 -59 -87 -26 -51 -51 -86 -68 -94 -14 -8 -47
-36 -72 -62 -64 -68 -147 -134 -170 -134 -10 0 -24 -9 -31 -20 -9 -14 -24 -20
-49 -20 -33 0 -37 -3 -42 -30 -6 -27 -10 -30 -47 -30 -33 0 -47 -6 -76 -35
-24 -24 -44 -35 -64 -35 -25 0 -30 -4 -30 -25 0 -14 -5 -25 -12 -25 -24 0
-118 -53 -132 -75 -10 -16 -22 -22 -35 -18 -12 3 -33 -5 -54 -21 -19 -14 -39
-26 -44 -26 -6 0 -16 -7 -23 -15 -7 -8 -23 -15 -35 -15 -12 0 -28 -7 -35 -15
-9 -11 -22 -14 -41 -10 -16 4 -30 1 -34 -5 -10 -17 -176 -93 -260 -120 -38
-12 -79 -31 -91 -41 -11 -11 -26 -19 -32 -19 -7 0 -12 -5 -12 -11 0 -6 -7 -9
-15 -5 -24 9 -235 -88 -235 -108 0 -7 11 -27 25 -46 18 -25 25 -46 25 -81 0
-26 4 -59 10 -73 12 -34 32 -34 24 -1 -4 18 -2 25 9 25 8 0 17 -7 21 -15 11
-28 25 -15 32 31 l6 45 19 -31 c11 -17 24 -28 29 -25 6 4 8 11 5 16 -4 5 -1 9
4 9 6 0 11 7 11 15 0 7 5 37 11 64 9 45 13 50 29 41 10 -6 28 -10 39 -10 14 0
21 -6 21 -20 0 -49 72 -43 85 7 l6 24 42 -25 43 -26 14 21 c8 11 25 31 36 44
l22 24 27 -29 c24 -25 26 -32 15 -45 -10 -13 -8 -18 14 -36 14 -11 23 -25 20
-31 -4 -6 -2 -8 4 -4 6 3 13 3 16 -2 2 -4 -19 -13 -49 -19 -44 -10 -61 -20
-95 -57 -24 -25 -51 -46 -61 -46 -21 0 -34 -16 -19 -25 5 -3 10 -1 10 5 0 6 5
8 11 5 5 -4 20 1 32 12 l21 18 -17 -25 c-18 -27 -57 -105 -57 -115 0 -3 -11
-31 -25 -62 -28 -60 -27 -72 11 -144 l24 -47 -30 -10 c-32 -12 -42 -33 -11
-25 14 4 46 -25 132 -122 l114 -127 0 -59 c1 -50 5 -63 28 -87 26 -27 27 -31
27 -152 l0 -124 -30 29 c-40 38 -46 28 -12 -21 24 -35 27 -48 28 -130 1 -60 9
-116 22 -160 11 -38 23 -100 26 -139 11 -127 10 -125 63 -125 17 0 34 -4 38
-9 3 -5 29 -17 58 -26 28 -9 60 -20 69 -26 21 -11 98 17 98 35 0 7 -20 28 -45
46 -25 19 -52 46 -59 60 -59 110 -56 100 -51 195 7 111 22 201 41 237 20 39
17 57 -6 28 -21 -27 -26 -16 -10 26 6 15 13 49 16 77 7 57 38 145 47 131 3 -6
15 -43 25 -84 11 -41 23 -83 27 -92 4 -11 3 -18 -4 -18 -6 0 -11 5 -11 10 0 6
-5 10 -10 10 -6 0 1 -22 14 -48 14 -27 28 -77 31 -113 4 -35 19 -93 33 -129
33 -84 43 -132 31 -146 -5 -6 -12 -45 -15 -87 l-7 -76 38 4 c21 3 41 8 44 10
2 3 17 -6 32 -21 25 -24 33 -25 120 -25 55 0 95 5 97 11 2 5 15 7 28 4 20 -5
24 -2 24 16 0 26 23 22 28 -5 8 -37 88 -160 107 -163 11 -2 27 -10 35 -17 28
-24 55 -1 80 67 26 73 36 87 67 99 13 5 37 29 55 54 27 38 37 45 65 45 23 0
31 4 27 14 -3 7 18 43 46 80 46 60 51 72 52 119 0 29 7 72 16 96 15 41 15 44
-2 57 -26 19 -14 54 31 84 20 14 49 38 66 55 16 16 35 30 42 30 6 0 24 15 39
32 15 18 35 33 44 33 13 0 14 2 4 9 -10 6 -6 15 18 35 18 14 51 52 75 84 52
72 95 108 106 90 6 -9 13 -7 31 7 13 11 4 -1 -20 -26 -23 -25 -39 -49 -35 -53
4 -4 -1 -4 -11 0 -14 5 -17 4 -11 -5 4 -7 4 -16 -1 -20 -21 -15 -92 -119 -103
-150 -20 -62 -12 -68 28 -23 21 23 45 42 53 42 8 0 29 16 47 35 17 19 37 35
44 35 7 0 27 16 45 35 26 29 33 33 38 20 4 -10 -3 -26 -17 -41 -18 -19 -19
-23 -6 -18 14 5 16 2 10 -12 -3 -11 -13 -29 -21 -41 -8 -14 -10 -23 -4 -23 6
0 14 5 17 10 10 16 22 12 28 -9 3 -12 -3 -27 -14 -37 -10 -9 -19 -23 -19 -30
0 -7 -12 -27 -27 -45 -16 -18 -23 -30 -18 -27 6 4 12 -2 12 -14 3 -28 10 -33
28 -18 8 7 15 9 15 4 0 -15 26 30 38 64 7 19 7 32 1 32 -5 0 -9 -10 -10 -22 0
-13 -3 -17 -6 -10 -3 7 3 34 12 60 15 41 21 47 46 48 19 1 29 -3 29 -13 0 -8
6 -13 13 -11 24 9 12 32 -21 42 -30 8 -41 35 -12 28 26 -6 105 104 94 132 -3
9 -1 16 5 16 6 0 11 8 11 17 0 9 8 25 17 36 17 18 17 19 -2 33 -14 10 -16 17
-8 25 6 6 9 18 6 25 -3 9 1 14 12 14 12 0 15 5 10 20 -7 23 4 26 24 8 11 -11
13 -7 7 21 -5 29 -4 32 9 21 8 -7 13 -16 10 -20 -3 -4 2 -21 10 -36 17 -33 21
-109 5 -99 -5 3 -10 2 -10 -4 0 -5 5 -13 10 -16 8 -5 8 -11 0 -20 -8 -10 -5
-18 15 -33 20 -16 22 -21 9 -26 -8 -3 -12 -10 -9 -16 4 -6 11 -7 17 -4 6 4 8
-1 4 -14 -4 -11 0 -37 9 -57 8 -21 15 -46 15 -56 0 -11 4 -19 9 -19 5 0 12
-11 15 -25 4 -14 11 -25 16 -25 6 0 1 18 -10 40 -23 45 -24 50 -9 50 5 0 17
-16 25 -35 16 -38 30 -48 19 -13 -6 17 -4 20 9 15 19 -8 17 6 -11 73 -8 19
-18 87 -24 150 -5 63 -12 135 -15 160 -8 63 -51 219 -64 235 -6 7 -9 19 -8 26
4 19 -42 20 -70 3 -12 -8 -20 -19 -16 -25 3 -5 7 -34 9 -64 2 -30 7 -59 10
-65 9 -14 -3 -30 -19 -24 -8 3 -11 15 -9 28 7 35 -15 42 -28 9 -56 -141 -92
-202 -122 -202 -17 -1 -17 0 -3 15 21 20 21 41 1 24 -13 -11 -15 3 -15 117 0
72 4 143 9 159 5 16 12 97 15 179 4 83 9 191 12 240 2 50 7 137 9 195 2 58 9
154 15 214 6 60 10 135 8 165 -3 51 -5 56 -28 58 -19 2 -30 -5 -45 -29 -13
-20 -29 -32 -44 -33 -13 -1 -30 -10 -37 -21 -8 -10 -27 -34 -44 -51 -21 -22
-30 -43 -30 -65 0 -38 -14 -66 -24 -49 -4 5 -8 33 -9 60 -1 27 -6 47 -11 44
-5 -4 -6 5 -3 19 5 17 2 30 -8 38 -8 7 -15 17 -15 22 0 5 -7 16 -15 24 -18 18
-20 49 -4 38 9 -5 10 1 5 22 -20 80 -58 107 -64 46 -2 -23 -8 -32 -17 -28 -16
6 -14 -62 4 -107 15 -37 15 -37 -14 -37 -23 0 -25 -3 -19 -32 6 -37 -4 -138
-14 -138 -26 2 -67 70 -43 70 6 0 12 -10 13 -22 0 -13 4 -3 7 22 5 31 3 48 -6
56 -7 6 -13 22 -12 35 0 23 1 23 10 4 8 -19 9 -19 6 -1 -2 21 -33 30 -44 13
-3 -6 -8 -47 -10 -91 -3 -77 -15 -114 -31 -90 -4 6 -15 15 -26 21 -18 10 -32
83 -16 83 12 0 22 32 13 41 -4 4 -18 3 -31 -2 -18 -7 -22 -14 -17 -30 5 -15 2
-22 -13 -26 -17 -4 -19 -9 -11 -36 5 -17 6 -33 4 -36 -3 -2 -5 1 -5 7 0 7 -5
12 -11 12 -5 0 -8 -4 -4 -9 3 -5 1 -12 -4 -16 -24 -14 -40 -68 -33 -104 11
-49 1 -93 -22 -101 -14 -4 -16 -9 -8 -14 17 -10 15 -26 -4 -26 -13 0 -15 -8
-10 -42 3 -24 11 -92 17 -152 11 -102 14 -110 45 -141 18 -18 37 -50 43 -72
12 -40 54 -89 70 -79 5 4 11 0 14 -6 3 -10 8 -8 18 4 8 9 21 18 28 20 8 2 29
32 45 68 17 36 33 67 36 70 3 3 6 24 6 48 1 31 9 49 28 69 14 14 26 21 26 14
0 -6 6 -11 14 -11 9 0 13 -8 9 -22 -4 -21 -3 -22 10 -6 12 16 16 16 35 2 13
-9 22 -11 22 -5 0 23 20 9 39 -26 14 -27 20 -32 21 -19 0 20 0 20 15 0 14 -18
14 -17 16 16 0 19 0 47 -1 63 -3 47 18 29 24 -20 3 -27 13 -84 21 -128 14 -75
20 -336 6 -270 -5 25 -12 31 -39 33 l-32 3 0 -60 c0 -58 -1 -61 -25 -61 -14 0
-25 -4 -25 -9 0 -5 -9 -12 -19 -16 -11 -3 -23 -15 -26 -25 -4 -11 -18 -23 -31
-26 -24 -6 -54 -43 -98 -120 -17 -30 -37 -40 -68 -35 -5 0 -8 -3 -8 -8 0 -5
-9 -11 -21 -14 -11 -3 -23 -15 -26 -26 -3 -12 -10 -21 -16 -21 -11 0 -4 160 8
192 4 11 0 18 -14 23 -15 4 -21 15 -21 35 0 16 -6 31 -12 33 -7 3 -8 6 -3 6
10 1 11 118 1 128 -3 4 -6 33 -6 65 l0 58 -40 0 c-33 0 -40 -3 -40 -19 0 -11
-5 -23 -11 -27 -7 -4 -9 -34 -7 -80 l3 -74 -32 0 c-41 0 -47 -11 -53 -90 l-5
-65 -55 -9 c-57 -10 -72 -20 -63 -42 3 -8 -8 -21 -25 -31 -32 -18 -42 -46 -42
-114 0 -22 -5 -39 -10 -39 -7 0 -8 13 -5 34 6 28 3 35 -12 40 -45 14 -58 2
-64 -60 -4 -32 -7 -94 -8 -136 -1 -64 -4 -76 -16 -72 -8 4 -15 14 -15 24 0 11
-4 21 -9 25 -9 5 -5 206 5 234 2 7 0 19 -5 25 -5 6 -6 48 -2 98 7 99 6 108
-18 108 -44 0 -50 -18 -54 -169 -4 -142 -7 -152 -41 -164 -6 -2 -12 -33 -14
-70 -2 -37 -8 -67 -12 -67 -5 0 -12 -25 -15 -55 -6 -44 -11 -55 -25 -55 -45 0
-50 -9 -50 -86 0 -41 -4 -74 -9 -74 -5 0 -16 -3 -25 -6 -13 -5 -15 0 -11 25 3
17 7 45 10 61 3 19 1 29 -5 25 -14 -9 -12 13 5 73 14 46 14 54 0 75 -8 13 -12
27 -8 30 3 4 1 7 -5 7 -7 0 -11 15 -10 35 1 36 4 38 70 49 26 5 37 12 36 24 0
9 4 34 8 55 5 28 2 46 -11 71 -16 29 -17 39 -6 82 7 26 15 94 18 150 5 89 4
105 -12 120 -15 16 -17 32 -12 151 4 85 2 135 -4 139 -6 3 -8 12 -6 18 3 7 -3
32 -14 55 -20 46 -57 68 -162 95 -77 20 -81 23 -62 52 9 14 13 34 9 48 -4 17
3 39 20 69 14 24 26 54 26 66 0 20 1 21 23 6 26 -16 37 -12 37 16 0 16 2 16
30 3 17 -9 33 -26 36 -41 6 -22 9 -19 26 29 11 29 22 61 25 71 3 9 9 17 14 17
5 0 6 -6 3 -14 -3 -8 4 -24 17 -37 20 -20 23 -21 34 -6 16 22 25 21 25 -1 0
-18 18 -42 31 -42 3 0 9 14 13 31 4 22 10 30 21 25 8 -3 14 -2 13 2 -1 4 1 22
5 41 7 33 8 33 26 17 21 -19 41 -14 41 10 0 11 8 14 28 12 22 -2 28 1 30 20 4
25 3 25 36 12 23 -8 26 -7 26 10 0 19 2 19 23 5 22 -14 24 -14 35 10 7 14 12
34 12 44 0 29 11 32 41 10 33 -24 29 -31 59 94 12 54 45 139 82 215 58 123 60
130 59 201 -2 103 19 165 78 220 25 24 39 41 30 38 -13 -4 -15 -1 -12 14 6 23
11 26 44 33 13 3 34 8 47 12 14 4 22 2 22 -5 0 -20 70 -154 87 -166 11 -8 14
-18 8 -31 -35 -81 -28 -194 11 -194 7 0 14 -25 19 -66 11 -104 30 -159 56
-161 21 -2 22 0 15 93 -6 79 -5 97 9 110 19 20 20 18 29 -25 5 -27 3 -32 -9
-27 -10 3 -15 -1 -15 -12 0 -21 29 -64 30 -44 0 15 34 16 62 1 16 -8 22 -8 29
2 4 7 5 17 3 21 -3 4 2 8 10 8 9 0 16 -11 18 -27 4 -35 33 -42 42 -11 4 13 9
41 12 63 3 22 9 56 14 75 6 19 10 51 10 70 0 22 3 30 9 22 5 -9 18 12 39 62
18 42 32 83 32 92 0 9 9 18 19 21 11 3 19 12 18 21 0 10 16 50 36 90 42 84 42
82 22 82 -8 0 -15 5 -15 10 0 6 6 10 13 10 8 0 20 11 27 25 8 14 34 35 59 47
56 26 63 27 67 8 6 -32 50 -136 67 -160 9 -13 17 -37 17 -52 0 -14 6 -33 14
-41 18 -18 9 -65 -16 -78 -14 -7 -18 -19 -16 -41 4 -41 26 -48 33 -11 3 15 16
64 28 108 19 67 22 102 20 223 -1 92 2 142 9 142 5 0 7 -7 4 -16 -13 -33 66
30 162 130 17 18 22 35 22 74 0 40 5 57 26 81 30 37 54 40 55 9 0 -13 3 -17 6
-10 2 6 15 12 28 12 13 0 27 5 31 12 5 7 2 9 -8 6 -8 -4 -21 -3 -28 2 -17 11
-5 41 14 34 10 -4 19 9 32 43 11 27 20 41 22 32 4 -22 44 -33 57 -16 6 6 24
14 40 15 17 2 38 11 48 19 19 18 24 4 5 -15 -9 -9 -9 -12 0 -12 6 0 21 19 33
43 28 54 35 58 75 41 39 -17 84 -18 84 -3 0 6 5 7 13 2 6 -4 31 -9 54 -10 38
-3 44 0 57 26 13 24 43 48 51 39 6 -7 -15 -48 -25 -48 -18 0 -11 -17 13 -27
12 -6 37 -8 55 -6 21 4 32 1 32 -7 0 -13 24 -7 85 21 53 25 78 45 71 58 -10
16 11 22 48 15 25 -4 36 -12 39 -28 2 -11 5 23 6 77 0 54 -4 107 -9 118 -8 13
-7 25 0 39 6 12 9 58 7 108 -1 48 -4 74 -6 57z m-1 -269 c0 -19 -4 -23 -20
-19 -23 6 -25 14 -8 31 18 18 28 14 28 -12z m-80 -46 c0 -5 -7 -10 -16 -10 -8
0 -12 5 -9 10 3 6 10 10 16 10 5 0 9 -4 9 -10z m-460 -94 c0 -3 -4 -8 -10 -11
-5 -3 -10 -1 -10 4 0 6 5 11 10 11 6 0 10 -2 10 -4z m38 -14 c2 -7 -3 -12 -12
-12 -9 0 -16 7 -16 16 0 17 22 14 28 -4z m-703 -22 c-27 -12 -43 -12 -25 0 8
5 22 9 30 9 10 0 8 -3 -5 -9z m-202 -23 c-3 -15 -16 -26 -39 -33 -19 -6 -34
-8 -34 -4 0 11 36 41 42 35 3 -3 11 1 18 10 17 20 18 19 13 -8z m-1 -489 c-7
-7 -12 -8 -12 -2 0 6 3 14 7 17 3 4 9 5 12 2 2 -3 -1 -11 -7 -17z m-210 -203
c-5 -29 -18 -40 -27 -25 -3 5 -1 10 6 10 7 0 9 3 6 7 -4 3 -2 12 4 20 16 18
17 17 11 -12z m-159 -447 c-6 -12 -33 -10 -33 2 0 6 5 10 10 10 6 0 11 12 11
28 l1 27 7 -30 c4 -16 6 -33 4 -37z m-54 -25 c1 -14 -5 -23 -13 -23 -21 0 -30
20 -17 33 6 6 11 22 12 37 l1 25 8 -25 c4 -14 8 -35 9 -47z m-72 -510 c-3 -10
-5 -2 -5 17 0 19 2 27 5 18 2 -10 2 -26 0 -35z m-1398 -28 c25 0 23 -22 -3
-27 -28 -6 -60 10 -38 19 6 2 9 10 6 15 -5 7 -2 8 7 2 8 -5 20 -9 28 -9z
m-399 -95 c25 -25 50 -26 51 -2 0 9 8 -5 17 -33 9 -27 21 -56 25 -62 16 -26
-3 -11 -69 52 -38 36 -63 65 -56 65 7 0 21 -9 32 -20z m201 -210 c16 0 30 -4
30 -10 2 -12 4 -21 11 -40 22 -56 30 -150 24 -257 -7 -101 -11 -120 -28 -135
-26 -22 -44 -23 -52 -3 -3 8 -1 15 4 15 6 0 10 -4 10 -10 0 -5 5 -10 11 -10 6
0 8 9 4 20 -4 12 -1 27 5 35 10 12 10 18 0 30 -7 8 -13 31 -14 52 -1 21 -6 47
-11 58 -6 16 -6 18 6 8 35 -34 30 13 -7 64 -25 34 -30 53 -14 53 15 0 12 26
-5 40 -9 7 -20 32 -26 57 -6 24 -15 46 -20 49 -5 3 -9 10 -9 15 0 6 12 1 26
-10 15 -12 40 -21 55 -21z m-244 24 c-3 -3 -12 -4 -19 -1 -8 3 -5 6 6 6 11 1
17 -2 13 -5z m510 -71 c13 -19 14 -28 5 -31 -6 -2 -12 -8 -12 -13 0 -14 62
-49 88 -49 18 0 22 -5 22 -34 0 -43 -33 -172 -53 -211 -10 -17 -14 -39 -10
-54 4 -15 2 -22 -5 -18 -5 4 -40 8 -77 9 -36 1 -69 6 -72 10 -3 5 3 8 13 6 15
-2 20 4 22 27 2 17 7 41 12 55 22 57 38 196 31 263 -8 75 4 89 36 40z m184
-124 c15 -15 23 -18 29 -9 5 8 9 7 13 -4 8 -19 -1 -46 -15 -46 -5 0 -6 -5 -2
-12 4 -6 8 -23 9 -37 1 -14 6 -62 10 -107 8 -95 7 -97 -85 -87 -39 4 -61 11
-65 21 -3 8 -3 17 0 20 3 3 5 0 5 -6 0 -30 90 10 111 50 13 24 4 69 -14 65 -6
-1 -12 6 -12 15 0 10 -7 26 -16 36 -21 25 -29 59 -22 93 7 34 25 37 54 8z
m-611 -127 c-7 -3 -5 -11 5 -22 12 -13 17 -37 17 -79 0 -40 4 -59 10 -55 10 6
8 -20 -5 -76 -7 -26 -22 -11 -34 33 -26 95 -30 102 -49 105 -14 2 -23 15 -31
42 -9 36 -8 42 17 72 14 18 30 42 34 53 7 17 11 14 28 -25 13 -30 15 -46 8
-48z m-240 1 c0 -16 -6 -23 -20 -23 -27 0 -36 25 -20 58 11 26 12 26 26 7 8
-10 14 -29 14 -42z m140 -65 c0 -5 -9 -4 -20 2 -11 6 -18 15 -14 21 6 11 34
-7 34 -23z m-136 -12 c31 -27 33 -46 8 -46 -17 0 -42 36 -42 60 0 15 7 12 34
-14z m483 -28 c-3 -8 -6 -5 -6 6 -1 11 2 17 5 13 3 -3 4 -12 1 -19z m-364 -70
c2 -18 4 -34 2 -36 -6 -7 -35 50 -30 58 12 19 23 10 28 -22z m-115 2 c7 -11
11 -20 9 -20 -2 0 -12 9 -22 20 -10 11 -14 20 -9 20 5 0 15 -9 22 -20z m139
-2 c-3 -8 -6 -5 -6 6 -1 11 2 17 5 13 3 -3 4 -12 1 -19z m71 -101 c-3 -16 -8
-10 -20 26 -9 26 -14 55 -11 63 8 21 35 -59 31 -89z m595 76 c-7 -2 -19 -2
-25 0 -7 3 -2 5 12 5 14 0 19 -2 13 -5z m-94 -27 c23 -28 44 -134 56 -285 8
-90 19 -169 24 -174 6 -6 11 -31 11 -56 -1 -44 -1 -45 -16 -26 -15 19 -16 18
-9 -14 5 -26 4 -32 -5 -26 -9 5 -11 4 -6 -4 4 -6 1 -18 -7 -26 -13 -12 -17
-12 -33 6 -16 18 -16 19 -1 13 22 -8 22 5 -2 30 -11 12 -21 38 -24 59 -3 20
-10 44 -17 52 -10 12 -10 15 0 15 9 0 9 5 -3 18 -11 12 -13 22 -7 32 14 22 12
29 -17 56 -16 14 -28 29 -29 32 0 4 -4 15 -7 25 -18 46 -18 50 -2 37 27 -23
16 1 -16 33 -34 34 -79 67 -91 67 -5 0 -8 -11 -8 -24 0 -15 -7 -26 -20 -29
-28 -7 -28 -83 0 -130 17 -29 19 -39 9 -63 -44 -111 -58 -160 -53 -181 4 -13
1 -30 -6 -38 -7 -9 -10 -18 -7 -21 3 -3 1 -17 -4 -31 -8 -22 -7 -24 8 -19 17
6 17 5 1 -8 -10 -7 -18 -18 -18 -25 0 -14 -17 -15 -25 -1 -10 16 -21 12 -35
-15 -13 -25 -14 -25 -31 -8 -23 23 -15 75 10 65 13 -5 14 -3 4 9 -10 12 -10
18 -1 27 9 9 9 15 0 24 -14 14 -16 32 -3 24 4 -3 13 6 20 20 6 14 7 23 1 19
-6 -3 -7 1 -4 9 3 9 11 16 16 16 7 0 7 5 1 13 -10 13 -10 67 0 84 4 6 4 18 1
27 -4 11 -1 16 11 16 11 0 15 5 11 15 -3 8 -1 15 4 15 10 0 6 62 -5 80 -3 6
-2 10 3 10 14 0 9 87 -6 102 -20 20 -14 27 18 18 35 -10 39 2 14 38 -15 22
-15 23 12 16 19 -5 25 -4 20 5 -4 6 -9 19 -11 29 -3 16 3 18 54 14 44 -3 60 0
70 12 7 9 25 16 40 16 14 0 32 4 40 9 19 12 59 11 70 -3z m78 -8 c-3 -8 -6 -5
-6 6 -1 11 2 17 5 13 3 -3 4 -12 1 -19z m123 -25 c0 -26 -3 -34 -11 -26 -9 9
-3 63 7 63 2 0 4 -17 4 -37z m-27 -11 c4 -19 3 -31 -2 -27 -5 3 -12 -8 -16
-25 -4 -16 -11 -30 -16 -30 -15 0 -10 74 7 98 19 27 19 27 27 -16z m-60 -27
c3 -16 0 -24 -7 -22 -14 4 -21 47 -8 47 5 0 12 -11 15 -25z m1317 -99 c0 -3
-4 -8 -10 -11 -5 -3 -10 -1 -10 4 0 6 5 11 10 11 6 0 10 -2 10 -4z m-1922 -87
c3 -62 2 -63 -14 -40 -14 19 -15 29 -6 59 9 28 9 38 -1 45 -9 6 -8 7 3 4 11
-2 16 -21 18 -68z m132 6 c7 -9 8 -15 2 -15 -5 0 -12 7 -16 15 -3 8 -4 15 -2
15 2 0 9 -7 16 -15z m527 -19 c-3 -7 0 -19 6 -25 8 -8 7 -11 -6 -11 -9 0 -17
4 -17 9 0 14 11 41 17 41 3 0 3 -6 0 -14z m-620 -123 c-3 -10 -5 -2 -5 17 0
19 2 27 5 18 2 -10 2 -26 0 -35z m1200 -25 c-2 -13 -4 -3 -4 22 0 25 2 35 4
23 2 -13 2 -33 0 -45z m-557 2 c0 -5 -5 -10 -11 -10 -5 0 -7 5 -4 10 3 6 8 10
11 10 2 0 4 -4 4 -10z m1243 -25 c-3 -9 -8 -14 -10 -11 -3 3 -2 9 2 15 9 16
15 13 8 -4z m-1896 -137 c-3 -7 -5 -2 -5 12 0 14 2 19 5 13 2 -7 2 -19 0 -25z
m2 -200 l-2 -53 -7 45 c-7 42 -5 60 6 60 2 0 3 -24 3 -52z m141 22 c0 -5 -5
-10 -11 -10 -5 0 -7 5 -4 10 3 6 8 10 11 10 2 0 4 -4 4 -10z m277 -52 c4 2 19
-34 34 -80 16 -46 37 -90 48 -100 21 -16 21 -16 -9 -27 -18 -6 -30 -17 -30
-28 0 -15 -2 -16 -10 -3 -8 13 -10 12 -11 -5 -1 -11 -1 -28 0 -37 1 -10 -3
-18 -8 -18 -12 0 -13 70 -2 110 8 29 -5 113 -24 150 -7 14 -16 36 -19 50 -7
24 -7 24 9 5 9 -11 19 -19 22 -17z m71 -99 c-3 -8 -7 -3 -11 10 -4 17 -3 21 5
13 5 -5 8 -16 6 -23z m41 -9 c0 -10 -3 -8 -9 5 -12 27 -12 43 0 25 5 -8 9 -22
9 -30z m-502 -72 c-3 -7 -5 -2 -5 12 0 14 2 19 5 13 2 -7 2 -19 0 -25z m151
-33 c-3 -3 -9 2 -12 12 -6 14 -5 15 5 6 7 -7 10 -15 7 -18z m381 -22 c-1 -16
-18 -48 -18 -36 -1 6 -4 18 -7 27 -4 11 -1 16 10 16 9 0 16 -3 15 -7z m-342
-75 c-7 -4 -17 -1 -24 10 -7 9 -17 23 -23 30 -6 7 -8 17 -4 24 5 8 17 0 36
-22 20 -25 24 -36 15 -42z m-12 -23 c6 -6 23 -20 39 -33 24 -19 26 -22 9 -22
-45 0 -114 32 -128 61 -20 38 -19 46 5 24 18 -16 20 -16 20 -2 0 10 -4 17 -10
17 -5 0 -10 5 -10 12 0 10 37 -18 75 -57z m508 4 c5 -20 5 -20 -13 -4 -11 10
-17 22 -14 26 8 13 21 3 27 -22z m-658 11 c3 -5 1 -10 -4 -10 -6 0 -11 5 -11
10 0 6 2 10 4 10 3 0 8 -4 11 -10z m385 0 c0 -5 -2 -10 -4 -10 -3 0 -8 5 -11
10 -3 6 -1 10 4 10 6 0 11 -4 11 -10z m162 -22 c13 -13 14 -18 4 -18 -8 0 -17
7 -20 15 -4 13 -10 14 -26 5 -11 -6 -20 -7 -20 -2 0 25 37 25 62 0z m-292 -22
c22 -27 -5 -17 -31 10 -21 24 -22 26 -3 16 11 -6 26 -18 34 -26z"/>
<path d="M1861 2814 c0 -11 3 -14 6 -6 3 7 2 16 -1 19 -3 4 -6 -2 -5 -13z"/>
<path d="M2340 2415 c0 -8 7 -15 15 -15 9 0 12 6 9 15 -4 8 -10 15 -15 15 -5
0 -9 -7 -9 -15z"/>
<path d="M2360 2380 c0 -5 5 -10 11 -10 5 0 7 5 4 10 -3 6 -8 10 -11 10 -2 0
-4 -4 -4 -10z"/>
<path d="M46 5726 c-3 -11 -1 -23 4 -24 6 -2 8 -7 6 -11 -3 -4 5 -6 17 -5 33
4 33 4 14 15 -13 8 -15 14 -7 24 8 9 6 14 -9 18 -14 3 -21 -2 -25 -17z"/>
<path d="M3724 5692 c-17 -11 -26 -49 -14 -57 5 -3 10 -16 11 -28 0 -21 1 -21
11 3 10 24 10 24 18 5 4 -11 5 -25 3 -30 -4 -13 35 -17 42 -4 4 5 1 9 -6 9 -6
0 -9 8 -6 20 3 11 1 20 -4 20 -5 0 -9 5 -9 11 0 5 5 7 12 3 7 -5 8 -3 4 5 -5
7 -19 16 -33 22 -13 5 -21 13 -18 19 7 12 4 12 -11 2z"/>
<path d="M3660 5670 c0 -5 5 -10 10 -10 6 0 10 5 10 10 0 6 -4 10 -10 10 -5 0
-10 -4 -10 -10z"/>
<path d="M106 5655 c-8 -21 3 -45 20 -45 15 0 18 18 8 44 -8 20 -20 20 -28 1z"/>
<path d="M3941 5627 c-13 -21 -12 -21 5 -5 10 10 16 20 13 22 -3 3 -11 -5 -18
-17z"/>
<path d="M10 5592 c0 -24 19 -42 44 -42 16 0 18 2 7 9 -8 5 -12 18 -8 30 4 17
1 21 -19 21 -16 0 -24 -6 -24 -18z"/>
<path d="M3240 5596 c0 -2 7 -9 15 -16 12 -10 15 -10 15 4 0 9 -7 16 -15 16
-8 0 -15 -2 -15 -4z"/>
<path d="M79 5528 c-6 -60 -5 -63 23 -63 33 0 34 3 11 21 -11 8 -13 13 -5 14
19 0 14 18 -8 30 -15 8 -20 8 -21 -2z"/>
<path d="M0 5440 c0 -26 4 -30 28 -30 23 1 25 2 12 13 -9 7 -14 20 -12 30 2
10 -3 17 -12 17 -11 0 -16 -9 -16 -30z"/>
<path d="M3180 5450 c0 -5 7 -10 16 -10 8 0 12 5 9 10 -3 6 -10 10 -16 10 -5
0 -9 -4 -9 -10z"/>
<path d="M3260 5446 c0 -8 5 -18 10 -21 6 -3 10 1 10 9 0 8 -4 18 -10 21 -5 3
-10 -1 -10 -9z"/>
<path d="M110 5420 c0 -5 5 -10 10 -10 6 0 10 5 10 10 0 6 -4 10 -10 10 -5 0
-10 -4 -10 -10z"/>
<path d="M47 5379 c-7 -26 14 -49 44 -49 21 0 21 1 5 19 -9 10 -14 25 -10 35
4 11 1 16 -14 16 -12 0 -22 -9 -25 -21z"/>
<path d="M121 5374 c0 -11 3 -14 6 -6 3 7 2 16 -1 19 -3 4 -6 -2 -5 -13z"/>
<path d="M2740 5370 c-8 -5 -28 -10 -44 -10 -30 0 -40 -3 -255 -66 -68 -20
-170 -44 -225 -54 -56 -10 -121 -27 -146 -38 -25 -10 -67 -24 -95 -31 -27 -7
-66 -21 -85 -31 -53 -28 -149 -70 -162 -70 -6 0 -27 -10 -46 -22 -19 -13 -67
-37 -106 -53 -53 -23 -71 -36 -71 -50 -1 -11 -4 -25 -8 -32 -16 -26 56 -125
127 -173 20 -14 36 -30 36 -36 0 -6 18 -27 40 -48 22 -20 40 -41 40 -46 0 -6
7 -10 15 -10 8 0 15 -4 15 -10 0 -5 5 -10 10 -10 7 0 7 6 0 20 -15 27 -8 25
55 -15 75 -47 95 -51 130 -23 31 25 84 56 153 88 23 12 42 27 42 35 0 8 3 15
8 15 4 0 34 22 67 50 33 27 66 50 72 50 7 0 20 12 30 28 10 15 23 32 29 37 7
6 38 42 69 80 172 213 208 256 269 319 63 66 70 76 67 104 -1 14 -11 15 -31 2z"/>
<path d="M41 5310 c0 -8 4 -22 9 -30 12 -18 12 -2 0 25 -6 13 -9 15 -9 5z"/>
<path d="M111 5293 c0 -25 1 -26 9 -8 12 27 12 35 0 35 -5 0 -10 -12 -9 -27z"/>
<path d="M0 5280 c0 -19 3 -21 12 -12 9 9 9 15 0 24 -9 9 -12 7 -12 -12z"/>
<path d="M1235 5246 c-149 -63 -213 -98 -218 -122 -2 -13 -3 -24 -1 -24 24 0
140 35 173 52 92 48 103 54 109 64 4 5 20 15 36 22 67 30 -28 37 -99 8z"/>
<path d="M25 5240 c-9 -27 7 -45 42 -48 24 -1 26 0 12 11 -9 6 -14 22 -13 35
5 29 -32 31 -41 2z"/>
<path d="M3354 5242 c5 -8 66 -4 66 4 0 2 -16 4 -36 4 -19 0 -33 -4 -30 -8z"/>
<path d="M3308 5233 c6 -2 18 -2 25 0 6 3 1 5 -13 5 -14 0 -19 -2 -12 -5z"/>
<path d="M90 5156 c0 -14 5 -28 10 -31 6 -3 10 -3 10 2 0 4 3 18 6 31 5 16 2
22 -10 22 -10 0 -16 -9 -16 -24z"/>
<path d="M0 5097 c0 -20 7 -30 23 -36 29 -11 38 -5 28 22 -4 12 -6 28 -4 34 3
9 -4 12 -21 11 -21 -2 -26 -7 -26 -31z"/>
<path d="M5118 5060 c-9 -14 -19 -36 -23 -50 -7 -22 -6 -23 9 -11 9 8 15 19
13 25 -2 6 3 16 11 22 8 6 13 17 10 25 -3 10 -9 6 -20 -11z"/>
<path d="M66 5024 c-11 -29 -6 -42 17 -46 20 -4 23 -1 23 29 0 24 -4 33 -17
33 -9 0 -20 -7 -23 -16z"/>
<path d="M1 4973 c-1 -39 3 -53 13 -53 11 0 12 8 5 43 -15 65 -17 66 -18 10z"/>
<path d="M5070 4920 c-9 -6 -10 -10 -3 -10 6 0 15 5 18 10 8 12 4 12 -15 0z"/>
<path d="M36 4884 c-8 -22 11 -44 38 -44 12 0 16 3 10 8 -7 4 -13 16 -15 26
-5 25 -25 31 -33 10z"/>
<path d="M2370 4810 c0 -5 5 -10 11 -10 5 0 7 5 4 10 -3 6 -8 10 -11 10 -2 0
-4 -4 -4 -10z"/>
<path d="M15 4749 c-5 -14 -3 -25 4 -27 6 -2 9 -7 7 -11 -3 -4 1 -8 9 -8 10 0
13 8 10 25 -7 38 -22 48 -30 21z"/>
<path d="M2262 4721 c-10 -6 -4 -10 18 -15 44 -8 47 -8 53 7 5 14 -51 21 -71
8z"/>
<path d="M1630 4685 c0 -7 65 -65 73 -65 14 0 -16 36 -44 53 -16 9 -29 14 -29
12z"/>
<path d="M80 4660 c0 -11 5 -20 10 -20 6 0 10 9 10 20 0 11 -4 20 -10 20 -5 0
-10 -9 -10 -20z"/>
<path d="M0 4609 c0 -11 4 -18 10 -14 5 3 7 12 3 20 -7 21 -13 19 -13 -6z"/>
<path d="M0 4572 c0 -4 12 -8 28 -9 23 -1 24 -1 7 7 -26 11 -35 12 -35 2z"/>
<path d="M50 4525 c0 -8 5 -15 10 -15 6 0 10 7 10 15 0 8 -4 15 -10 15 -5 0
-10 -7 -10 -15z"/>
<path d="M4239 4498 c-5 -17 -4 -48 3 -48 4 0 8 11 8 25 0 20 -7 34 -11 23z"/>
<path d="M1007 4208 c-8 -12 -18 -34 -22 -48 -7 -22 -6 -23 9 -8 9 9 16 23 16
30 0 8 5 19 12 26 6 6 9 14 6 18 -4 3 -13 -5 -21 -18z"/>
<path d="M1286 4185 c-11 -8 -15 -15 -10 -15 6 0 19 7 30 15 10 8 15 14 9 14
-5 0 -19 -6 -29 -14z"/>
<path d="M4879 4028 c-1 -2 -3 -20 -4 -41 -2 -28 1 -35 10 -27 6 5 16 6 21 2
4 -4 2 1 -5 10 -7 10 -11 27 -8 38 3 11 1 20 -4 20 -5 0 -10 -1 -10 -2z"/>
<path d="M1575 3840 c-2 -4 -16 -5 -30 -2 -18 3 -33 -2 -48 -16 -12 -11 -44
-26 -70 -33 -27 -6 -51 -17 -53 -24 -4 -9 -15 -10 -37 -6 -20 5 -42 2 -57 -6
-18 -9 -20 -13 -7 -13 9 0 17 -5 17 -11 0 -7 -9 -5 -24 4 -21 14 -25 14 -30 1
-8 -20 -48 -34 -63 -22 -10 8 -13 6 -13 -7 0 -17 -1 -17 -19 -1 -19 18 -20 17
-17 -9 2 -15 9 -31 16 -35 7 -5 10 -17 7 -29 -4 -17 -1 -21 11 -19 9 1 22 -1
29 -5 6 -4 29 -1 50 7 21 7 72 26 113 41 41 15 83 37 94 48 10 12 22 22 27 22
4 0 14 6 21 14 11 11 5 13 -37 7 -35 -4 -46 -3 -38 5 5 5 26 12 44 15 40 6
149 42 166 56 7 6 11 14 8 18 -6 10 -54 10 -60 0z m-212 -117 c-7 -2 -19 -2
-25 0 -7 3 -2 5 12 5 14 0 19 -2 13 -5z"/>
<path d="M4711 3773 c5 -30 -3 -43 -26 -43 -29 0 -37 -31 -33 -132 2 -49 7
-68 17 -68 8 0 11 7 8 20 -3 11 -2 18 2 15 9 -5 42 120 47 178 2 20 -1 37 -6
37 -6 0 -9 -3 -9 -7z"/>
<path d="M28 3703 c7 -3 16 -2 19 1 4 3 -2 6 -13 5 -11 0 -14 -3 -6 -6z"/>
<path d="M4517 3584 c-4 -4 -7 -14 -7 -23 0 -11 3 -12 11 -4 6 6 10 16 7 23
-2 6 -7 8 -11 4z"/>
<path d="M4665 3490 c3 -5 8 -10 11 -10 2 0 4 5 4 10 0 6 -5 10 -11 10 -5 0
-7 -4 -4 -10z"/>
<path d="M4270 3434 c0 -8 5 -12 10 -9 6 4 8 11 5 16 -9 14 -15 11 -15 -7z"/>
<path d="M4300 3440 c0 -5 5 -10 11 -10 5 0 7 5 4 10 -3 6 -8 10 -11 10 -2 0
-4 -4 -4 -10z"/>
<path d="M3991 3404 c0 -11 3 -14 6 -6 3 7 2 16 -1 19 -3 4 -6 -2 -5 -13z"/>
<path d="M2850 3368 c1 -18 -2 -55 -6 -81 -7 -47 -8 -49 -36 -45 -21 4 -33 0
-41 -14 -7 -10 -17 -18 -24 -18 -30 0 -63 -126 -63 -239 0 -72 13 -109 25 -72
7 22 27 30 23 9 -3 -10 11 -13 57 -9 21 1 50 72 33 82 -9 6 -9 11 0 22 7 7 10
16 8 18 -2 2 9 14 25 27 17 13 30 18 34 12 3 -5 2 -10 -3 -10 -12 0 -15 -160
-4 -191 8 -19 10 -14 16 29 5 37 11 52 22 52 8 0 13 4 10 9 -3 5 0 11 8 14 15
6 32 77 27 112 -3 23 -19 45 -32 45 -5 0 -6 -7 -3 -15 4 -10 0 -15 -15 -15
-21 0 -21 0 3 38 14 20 31 68 37 106 12 66 12 68 -10 85 -13 10 -22 26 -20 37
5 29 -9 44 -42 44 -27 0 -30 -3 -29 -32z"/>
<path d="M32 3360 c0 -14 2 -19 5 -12 2 6 2 18 0 25 -3 6 -5 1 -5 -13z"/>
<path d="M2290 3340 c-13 -8 -12 -10 5 -11 35 -3 40 -4 52 -12 6 -4 14 -3 17
1 3 5 -6 14 -20 21 -30 13 -35 13 -54 1z"/>
<path d="M2487 3299 c7 -7 15 -10 18 -7 3 3 -2 9 -12 12 -14 6 -15 5 -6 -5z"/>
<path d="M11 3224 c0 -11 3 -14 6 -6 3 7 2 16 -1 19 -3 4 -6 -2 -5 -13z"/>
<path d="M2548 3153 c7 -3 16 -2 19 1 4 3 -2 6 -13 5 -11 0 -14 -3 -6 -6z"/>
<path d="M3635 3110 c4 -6 11 -8 16 -5 14 9 11 15 -7 15 -8 0 -12 -5 -9 -10z"/>
<path d="M3585 3100 c-3 -5 -1 -10 4 -10 6 0 11 5 11 10 0 6 -2 10 -4 10 -3 0
-8 -4 -11 -10z"/>
<path d="M3417 3064 c6 -16 19 -18 27 -5 3 5 -3 11 -13 14 -14 3 -18 1 -14 -9z"/>
<path d="M3927 2882 c-21 -23 -22 -42 -3 -42 7 0 16 12 19 28 7 34 4 36 -16
14z"/>
<path d="M8 2883 c7 -3 16 -2 19 1 4 3 -2 6 -13 5 -11 0 -14 -3 -6 -6z"/>
<path d="M5190 2700 c0 -19 3 -21 12 -12 9 9 9 15 0 24 -9 9 -12 7 -12 -12z"/>
<path d="M3955 2489 c-9 -14 -2 -20 14 -10 8 6 9 11 3 15 -6 3 -14 1 -17 -5z"/>
<path d="M2578 2476 c-15 -11 -17 -30 -9 -75 1 -2 8 2 16 9 13 11 13 15 3 21
-10 7 -9 9 4 9 9 0 19 -6 21 -12 4 -10 6 -10 6 -1 1 7 -8 18 -18 25 -15 9 -17
15 -9 25 13 16 8 16 -14 -1z"/>
<path d="M3978 2463 c0 -4 -2 -12 -3 -18 -2 -5 -3 -16 -4 -22 0 -7 -8 -13 -16
-13 -8 0 -15 -7 -15 -15 0 -21 12 -19 38 5 23 22 29 54 12 65 -5 3 -11 3 -12
-2z"/>
<path d="M4021 2434 c0 -11 3 -14 6 -6 3 7 2 16 -1 19 -3 4 -6 -2 -5 -13z"/>
<path d="M3966 2338 c-9 -12 -16 -37 -16 -54 0 -17 -6 -47 -14 -65 -13 -33
-46 -225 -44 -261 2 -21 18 -24 18 -4 0 8 6 21 13 28 8 7 19 27 25 43 8 23 11
25 12 10 2 -29 59 144 60 180 0 17 9 45 20 63 32 53 28 65 -27 76 -25 6 -34 3
-47 -16z"/>
<path d="M3866 2333 c-6 -14 -5 -15 5 -6 7 7 10 15 7 18 -3 3 -9 -2 -12 -12z"/>
<path d="M3671 2306 c-9 -11 -9 -16 0 -22 7 -4 9 -3 5 4 -3 5 0 12 6 15 7 2
10 7 7 11 -3 4 -12 0 -18 -8z"/>
<path d="M3593 2275 c-3 -9 -3 -18 -1 -21 3 -3 8 4 11 16 6 23 -1 27 -10 5z"/>
<path d="M4180 2261 c0 -6 4 -13 10 -16 6 -3 7 1 4 9 -7 18 -14 21 -14 7z"/>
<path d="M4158 2165 c2 -14 8 -25 13 -25 14 0 11 26 -5 39 -11 9 -12 6 -8 -14z"/>
<path d="M20 2146 c0 -8 4 -17 9 -20 5 -4 7 3 4 14 -6 23 -13 26 -13 6z"/>
<path d="M4199 2142 c-5 -43 -4 -48 12 -48 17 0 17 2 2 18 -9 10 -11 18 -5 18
17 0 42 -30 42 -51 0 -10 5 -19 10 -19 13 0 13 6 -6 45 -13 29 -53 55 -55 37z"/>
<path d="M4552 2139 c2 -6 8 -10 13 -10 5 0 11 4 13 10 2 6 -4 11 -13 11 -9 0
-15 -5 -13 -11z"/>
<path d="M4019 2098 c-6 -24 -18 -63 -25 -87 -20 -63 -17 -82 7 -41 20 35 20
29 2 -34 -12 -43 17 -2 33 47 24 74 45 112 53 98 5 -7 14 2 24 24 9 19 13 35
8 35 -6 0 -13 -10 -17 -22 l-7 -23 -8 23 c-6 15 -17 22 -33 22 -21 0 -27 -7
-37 -42z"/>
<path d="M3660 2120 c0 -5 5 -10 10 -10 6 0 10 5 10 10 0 6 -4 10 -10 10 -5 0
-10 -4 -10 -10z"/>
<path d="M3759 2038 c-6 -24 -14 -47 -17 -52 -3 -5 0 -6 6 -2 7 4 12 13 12 20
0 21 36 56 56 56 16 0 17 2 4 10 -32 20 -49 11 -61 -32z"/>
<path d="M0 2005 c0 -14 6 -25 14 -25 9 0 12 8 8 25 -2 14 -8 25 -13 25 -5 0
-9 -11 -9 -25z"/>
<path d="M1185 1870 c-8 -13 5 -61 16 -54 12 7 12 64 0 64 -6 0 -12 -4 -16
-10z"/>
<path d="M0 1834 c0 -14 7 -20 28 -21 15 -1 20 1 12 4 -8 3 -21 12 -27 21 -12
14 -13 14 -13 -4z"/>
<path d="M3971 1824 c0 -11 3 -14 6 -6 3 7 2 16 -1 19 -3 4 -6 -2 -5 -13z"/>
<path d="M3806 1681 c-4 -5 -2 -12 3 -15 5 -4 12 -2 15 3 4 5 2 12 -3 15 -5 4
-12 2 -15 -3z"/>
<path d="M5258 1678 c0 -7 -2 -18 -2 -23 -1 -6 -10 -36 -20 -67 -17 -50 -23
-57 -56 -67 -47 -14 -53 -14 -44 0 5 8 1 8 -14 0 -16 -8 -21 -7 -26 4 -7 19
-36 19 -69 2 -15 -8 -50 -13 -79 -11 -70 3 -82 6 -90 24 -5 12 -7 12 -7 -2 -1
-12 -9 -18 -26 -18 -14 0 -28 -7 -31 -15 -4 -8 -10 -15 -15 -15 -5 0 0 23 11
50 31 78 24 90 -24 45 -32 -30 -32 -30 -39 -6 -4 15 -12 18 -43 14 -21 -2 -41
-8 -44 -12 -3 -4 -15 -10 -27 -13 -22 -6 -37 15 -38 52 0 9 -11 16 -25 17 -91
8 -118 13 -142 22 -30 11 -88 4 -88 -10 0 -15 -22 -10 -35 7 -11 15 -14 15
-43 0 -18 -9 -32 -21 -32 -26 0 -6 -9 -10 -20 -10 -11 0 -20 4 -20 9 0 18 -52
22 -76 6 -13 -8 -30 -15 -39 -15 -8 0 -26 -18 -40 -40 -14 -22 -33 -40 -42
-40 -9 0 -34 -19 -55 -42 l-39 -43 8 45 c4 25 8 63 8 85 0 36 -3 40 -27 43
-24 3 -28 -2 -43 -50 -9 -29 -26 -77 -38 -105 -18 -46 -24 -53 -48 -53 -15 0
-29 -5 -31 -12 -3 -7 -26 -11 -65 -9 -54 2 -62 -1 -68 -18 -6 -21 -21 -21
-111 -5 -29 5 -33 3 -53 -38 -11 -24 -21 -50 -21 -57 0 -9 -8 -11 -24 -7 -36
9 -72 -9 -80 -39 -5 -20 -11 -25 -26 -20 -47 15 -57 0 -65 -94 -6 -72 -4 -94
9 -119 33 -63 64 -169 76 -257 6 -49 16 -112 22 -140 10 -47 35 -94 50 -95 8
0 38 88 38 114 0 17 2 18 10 6 6 -10 10 -11 10 -2 0 6 5 12 10 12 6 0 10 -9
10 -19 0 -10 9 -29 20 -42 l19 -24 1 55 c1 53 18 119 19 78 1 -10 6 -18 11
-18 10 0 15 27 12 63 -3 30 15 19 22 -14 6 -29 7 -30 23 -13 17 16 18 16 21 1
2 -9 7 -17 11 -17 11 0 56 -40 45 -40 -5 0 -2 -6 6 -13 8 -7 26 -34 38 -60 21
-42 28 -48 50 -45 22 2 30 -3 44 -32 10 -19 18 -30 18 -25 1 6 7 -1 14 -15 8
-13 13 -38 11 -55 -1 -16 0 -22 2 -12 2 9 9 17 15 17 5 0 8 -7 4 -15 -3 -9 0
-15 9 -15 8 0 19 -17 25 -40 11 -42 32 -57 23 -17 -3 15 4 9 21 -18 33 -50 43
-85 26 -95 -9 -5 -7 -12 8 -26 12 -11 30 -41 42 -68 l20 -48 -207 6 c-115 3
-258 9 -319 12 -74 4 -117 3 -130 -4 -17 -10 -17 -11 -1 -12 9 0 17 -8 17 -17
0 -15 2 -14 14 3 8 10 17 16 21 13 3 -4 21 -3 40 1 19 4 55 3 82 -2 26 -5 75
-10 108 -11 54 -2 60 -4 65 -27 l6 -25 8 23 c4 13 12 19 19 15 6 -4 40 -6 75
-5 60 2 63 1 57 -19 -5 -15 -4 -19 4 -15 6 4 11 14 11 22 0 11 5 12 18 6 9 -5
25 -8 35 -7 10 2 17 -3 17 -11 0 -9 5 -12 10 -9 6 4 8 11 5 16 -11 16 38 10
57 -8 18 -16 18 -16 12 2 -6 14 -4 16 7 9 20 -12 39 -14 39 -3 0 5 5 9 11 9 5
0 8 -4 5 -9 -4 -5 14 -8 39 -6 25 2 45 0 45 -5 0 -11 25 -7 43 8 11 10 17 9
26 -2 14 -17 128 -21 147 -5 8 7 14 7 19 -1 4 -7 113 -10 328 -9 l322 2 -170
13 c-93 7 -217 19 -275 25 -58 7 -127 13 -155 13 -27 1 -55 4 -61 8 -12 8 -67
9 -180 2 -101 -7 -164 8 -164 38 0 17 3 18 15 8 14 -12 39 -5 31 9 -5 8 -25
106 -46 226 -25 150 -53 271 -65 285 -17 22 -31 64 -54 166 -21 91 -20 151 3
166 19 13 25 9 21 -14 -4 -23 -4 -23 11 -3 14 18 15 10 8 -91 -6 -106 -6 -111
14 -116 31 -8 45 6 40 41 -3 18 -1 34 4 37 4 3 5 24 2 47 -4 31 -3 38 5 27 9
-12 11 -11 12 10 1 14 2 30 4 35 1 6 3 18 3 28 1 9 7 17 13 17 5 0 7 -4 4 -10
-3 -5 -1 -10 6 -10 8 0 7 -5 -2 -17 -12 -14 -12 -15 0 -9 10 7 12 3 7 -15 l-6
-24 12 23 c11 23 11 23 25 -10 l14 -32 12 23 c14 28 44 43 34 17 -4 -9 -4 -16
-1 -16 2 0 9 11 14 25 5 14 15 25 21 25 6 0 9 -7 5 -15 -3 -8 -2 -15 2 -15 14
1 52 38 52 52 1 7 9 -5 20 -27 15 -31 19 -35 20 -17 0 23 19 32 21 10 0 -7 5
-2 11 12 9 22 11 23 17 7 6 -16 7 -16 23 2 9 11 13 23 10 27 -4 5 0 3 10 -4
13 -10 15 -26 13 -80 -2 -37 -2 -74 0 -82 4 -13 29 -17 76 -11 4 1 10 16 14
34 7 34 11 30 30 -28 6 -19 7 -19 25 5 l20 25 0 -26 c0 -27 -16 -119 -26 -151
-3 -10 -2 -18 3 -18 4 0 16 44 26 97 14 73 15 98 6 104 -18 10 -5 97 24 161
13 29 29 68 36 86 8 17 20 32 28 32 17 0 15 -12 -37 -250 -4 -19 -12 -47 -18
-61 -6 -15 -9 -63 -8 -107 2 -50 -1 -79 -6 -76 -6 4 -6 0 0 -12 5 -11 7 -26 5
-34 -4 -13 -3 -13 6 0 6 8 11 24 11 35 0 12 5 26 10 31 6 6 12 27 13 47 2 20
6 39 10 43 4 4 7 16 7 27 0 13 5 17 15 13 9 -3 15 0 15 8 0 8 -5 16 -11 18
-17 6 3 84 20 80 8 -2 10 4 6 18 -3 11 -2 20 3 20 8 0 16 19 27 60 9 40 30 82
43 89 14 8 14 12 3 25 -12 14 -10 26 14 81 26 63 53 90 41 41 -9 -37 7 -41 20
-4 9 27 8 35 -4 44 -24 18 -7 49 30 52 39 3 44 8 29 26 -8 10 -9 20 -3 33 6
10 15 30 21 46 12 30 32 35 51 12 15 -18 6 -45 -15 -45 -8 0 -15 -7 -15 -15 0
-8 -4 -15 -9 -15 -5 0 -12 -16 -15 -36 -4 -19 -10 -43 -12 -52 -4 -13 -2 -12
11 3 15 19 17 19 26 2 6 -9 15 -14 21 -11 7 5 9 -2 4 -20 -10 -41 17 -33 49
15 18 27 32 70 43 128 14 77 28 111 47 111 9 0 -5 -63 -15 -70 -4 -3 -10 -23
-13 -45 -3 -22 -7 -56 -11 -75 -4 -29 -3 -32 6 -15 11 18 12 18 18 1 5 -16 9
-13 23 17 9 19 17 47 17 62 0 15 4 24 10 20 6 -4 8 -21 4 -41 -11 -58 12 -40
64 53 8 13 27 26 43 30 22 4 35 16 49 44 30 58 27 71 -14 64 l-34 -7 2 64 c3
68 -1 88 -15 88 -5 0 -10 -6 -11 -12z m-351 -294 c-3 -3 -12 -4 -19 -1 -8 3
-5 6 6 6 11 1 17 -2 13 -5z m-920 -166 c-3 -7 -5 -2 -5 12 0 14 2 19 5 13 2
-7 2 -19 0 -25z m699 5 c-2 -16 -1 -20 1 -11 5 21 33 46 33 29 0 -24 -30 -82
-39 -77 -5 4 -14 -2 -20 -11 -5 -10 -13 -14 -18 -9 -4 5 -3 11 4 13 7 2 10 10
7 18 -5 12 21 75 31 75 2 0 3 -12 1 -27z m-151 -94 c-5 -14 -3 -19 3 -15 19
11 22 -11 7 -40 -8 -16 -15 -38 -15 -49 -1 -11 -8 -38 -16 -60 -21 -55 -22
-64 -23 -114 -1 -36 -3 -41 -15 -32 -10 8 -12 21 -6 46 5 22 4 35 -2 35 -5 0
-8 6 -5 13 2 6 10 11 16 10 13 -3 15 14 2 19 -9 3 -1 43 31 166 6 23 15 42 20
42 5 0 6 -10 3 -21z m-228 -91 c-3 -7 -5 -2 -5 12 0 14 2 19 5 13 2 -7 2 -19
0 -25z m-577 -488 c0 -5 -5 -10 -11 -10 -5 0 -7 5 -4 10 3 6 8 10 11 10 2 0 4
-4 4 -10z"/>
<path d="M8 1663 c7 -3 16 -2 19 1 4 3 -2 6 -13 5 -11 0 -14 -3 -6 -6z"/>
<path d="M5436 1528 c-3 -13 -6 -44 -6 -70 0 -62 -7 -78 -36 -78 -24 0 -32 14
-14 25 20 12 10 25 -20 25 -25 0 -30 -5 -39 -36 -5 -19 -7 -42 -4 -50 3 -8 1
-14 -5 -14 -5 0 -7 -11 -4 -25 3 -20 10 -25 33 -25 24 0 30 -6 40 -40 10 -32
9 -43 -2 -57 -8 -9 -9 -14 -2 -10 13 8 18 -5 28 -73 11 -72 34 -97 57 -65 12
17 9 75 -4 75 -8 0 -9 3 -1 11 6 6 7 25 3 50 -4 22 -4 42 0 44 5 3 11 23 15
44 5 32 10 38 26 34 18 -5 19 1 19 114 0 129 -5 143 -51 143 -19 0 -28 -6 -33
-22z m-76 -198 c9 -16 8 -20 -5 -20 -8 0 -15 9 -15 20 0 11 2 20 5 20 2 0 9
-9 15 -20z"/>
<path d="M11 1454 c0 -11 3 -14 6 -6 3 7 2 16 -1 19 -3 4 -6 -2 -5 -13z"/>
<path d="M5261 1378 l1 -43 14 33 c14 33 12 52 -7 52 -5 0 -9 -19 -8 -42z"/>
<path d="M5315 1260 c-3 -5 -1 -10 4 -10 6 0 11 5 11 10 0 6 -2 10 -4 10 -3 0
-8 -4 -11 -10z"/>
<path d="M37 1017 c-11 -29 -9 -53 4 -40 6 6 9 21 7 34 -3 21 -4 22 -11 6z"/>
<path d="M470 1007 c-13 -10 -13 -18 -3 -57 l13 -45 -5 44 c-3 26 -1 49 6 57
14 17 9 18 -11 1z"/>
<path d="M1495 998 c-3 -7 -1 -26 4 -43 9 -28 9 -27 8 12 -2 45 -5 51 -12 31z"/>
<path d="M1025 910 c-4 -25 -11 -53 -16 -62 -5 -10 -5 -19 0 -23 11 -6 36 95
29 116 -3 8 -8 -6 -13 -31z"/>
<path d="M804 925 c-18 -14 -18 -14 4 -8 12 3 22 9 22 14 0 12 -3 11 -26 -6z"/>
<path d="M1593 904 c-24 -27 -30 -39 -13 -29 14 9 60 -40 60 -64 0 -23 -22
-41 -28 -23 -8 26 -35 43 -58 38 -29 -8 -32 11 -6 30 15 12 15 12 -5 7 -14 -3
-23 -1 -23 6 0 6 10 16 23 21 21 8 20 9 -6 7 -31 -2 -45 -30 -27 -52 7 -8 10
-30 8 -50 -4 -31 -1 -35 25 -41 36 -7 47 1 12 10 -27 7 -32 25 -13 44 19 19
36 14 54 -14 15 -22 15 -27 3 -35 -9 -5 1 -6 26 -2 22 3 47 12 55 19 13 11 18
10 28 -6 7 -11 20 -20 30 -19 13 0 12 2 -5 9 -19 8 -23 18 -24 52 -1 43 -1 43
-11 13 -14 -38 -27 -55 -44 -55 -9 0 -11 10 -7 33 4 28 0 37 -24 58 -28 23
-29 27 -15 47 19 29 12 28 -15 -4z"/>
<path d="M1120 903 c0 -13 3 -14 12 -5 31 31 51 -5 28 -49 -7 -11 -7 -19 -1
-19 5 0 12 6 14 13 3 6 6 2 6 -11 1 -13 -9 -33 -22 -45 -13 -12 -16 -16 -7 -9
25 18 30 15 31 -20 2 -31 2 -31 6 -5 3 17 11 27 21 27 16 1 16 2 0 14 -13 9
-18 27 -18 64 0 36 -4 52 -16 56 -30 11 -54 6 -54 -11z"/>
<path d="M1271 872 c1 -26 -3 -58 -10 -70 -9 -17 -9 -21 2 -16 26 10 41 134
16 134 -5 0 -9 -22 -8 -48z"/>
<path d="M1309 903 c-11 -15 -11 -16 1 -5 27 23 32 12 27 -55 l-6 -68 14 65
c7 36 11 68 8 72 -8 14 -30 9 -44 -9z"/>
<path d="M590 873 c-3 -23 -2 -39 3 -34 5 5 7 24 5 42 -3 33 -4 33 -8 -8z"/>
<path d="M665 899 c-4 -6 -5 -12 -2 -15 2 -3 7 2 10 11 7 17 1 20 -8 4z"/>
<path d="M708 885 c5 -29 -21 -75 -43 -75 -8 0 -15 -5 -15 -10 0 -16 36 6 54
32 17 24 21 64 7 72 -4 3 -6 -6 -3 -19z"/>
<path d="M1089 893 c-13 -16 -12 -17 4 -4 9 7 17 15 17 17 0 8 -8 3 -21 -13z"/>
<path d="M12 858 c-14 -14 -16 -38 -3 -38 10 0 26 39 19 46 -2 2 -10 -2 -16
-8z"/>
<path d="M1097 838 c-20 -35 -19 -38 8 -27 11 4 14 8 7 8 -10 1 -10 6 -2 22
18 33 6 31 -13 -3z"/>
<path d="M480 837 c0 -12 -6 -31 -14 -42 -12 -18 -12 -20 9 -20 16 0 20 4 14
11 -5 6 -5 24 1 42 5 20 5 32 -1 32 -5 0 -9 -10 -9 -23z"/>
<path d="M787 848 c2 -5 10 -8 18 -8 8 0 16 3 18 8 3 4 -5 7 -18 7 -13 0 -21
-3 -18 -7z"/>
<path d="M862 827 c-31 -16 -41 -27 -40 -42 6 -45 92 -11 100 39 4 27 -11 28
-60 3z m48 -11 c0 -18 -38 -46 -62 -46 -26 0 -22 15 8 39 31 24 54 27 54 7z"/>
<path d="M1783 813 l-11 -37 19 24 c19 26 25 50 11 50 -4 0 -12 -17 -19 -37z"/>
<path d="M563 813 c-15 -5 -17 -23 -4 -23 5 0 11 7 15 15 3 8 4 15 3 14 -1 0
-8 -3 -14 -6z"/>
<path d="M1360 780 c-13 -8 -12 -10 3 -10 9 0 17 5 17 10 0 12 -1 12 -20 0z"/>
<path d="M33 753 c-18 -7 -16 -20 2 -20 8 0 15 6 15 14 0 7 -1 13 -2 12 -2 0
-9 -3 -15 -6z"/>
<path d="M1166 704 c-4 -11 -14 -15 -31 -12 -13 3 -22 1 -19 -3 8 -14 40 -10
54 6 7 9 11 18 8 21 -3 3 -8 -3 -12 -12z"/>
<path d="M1852 680 c0 -14 2 -19 5 -12 2 6 2 18 0 25 -3 6 -5 1 -5 -13z"/>
<path d="M1422 640 c0 -14 2 -19 5 -12 2 6 2 18 0 25 -3 6 -5 1 -5 -13z"/>
<path d="M1677 642 c-19 -21 -22 -42 -6 -42 6 0 9 6 6 13 -2 6 2 20 11 30 20
23 10 22 -11 -1z"/>
<path d="M32 625 c-6 -14 -16 -25 -22 -25 -5 0 -10 -4 -10 -9 0 -4 11 -6 25
-3 20 3 25 10 25 33 0 36 -3 36 -18 4z"/>
<path d="M1432 570 c0 -19 2 -27 5 -17 2 9 2 25 0 35 -3 9 -5 1 -5 -18z"/>
<path d="M1809 583 c-12 -16 -12 -17 2 -6 9 7 20 9 24 5 5 -4 5 -1 1 6 -9 16
-11 15 -27 -5z"/>
<path d="M314 568 l-19 -23 23 19 c21 18 27 26 19 26 -2 0 -12 -10 -23 -22z"/>
<path d="M1682 575 c0 -11 3 -29 8 -40 11 -25 11 1 0 35 -6 20 -8 21 -8 5z"/>
<path d="M1724 573 c11 -13 26 -23 35 -22 14 0 14 1 1 6 -8 3 -24 13 -35 22
-20 16 -20 16 -1 -6z"/>
<path d="M422 560 c0 -14 2 -19 5 -12 2 6 2 18 0 25 -3 6 -5 1 -5 -13z"/>
<path d="M496 563 c-6 -14 -5 -15 5 -6 7 7 10 15 7 18 -3 3 -9 -2 -12 -12z"/>
<path d="M2062 568 c-7 -7 -11 -38 -10 -72 1 -36 3 -48 5 -28 4 28 8 32 26 28
12 -3 16 -3 10 0 -7 3 -13 12 -13 20 0 9 -4 12 -10 9 -5 -3 -10 3 -10 14 0 23
15 28 23 9 3 -8 6 -7 6 4 1 22 -13 30 -27 16z"/>
<path d="M41 554 c0 -11 3 -14 6 -6 3 7 2 16 -1 19 -3 4 -6 -2 -5 -13z"/>
<path d="M1925 525 c-28 -27 -31 -40 -13 -51 7 -5 9 -2 5 8 -3 9 3 24 14 34
21 19 21 19 38 -13 19 -37 30 -26 13 12 -19 42 -25 43 -57 10z"/>
<path d="M2129 523 l-24 -28 25 21 c14 12 32 24 40 27 13 5 13 6 -1 6 -8 1
-26 -11 -40 -26z"/>
<path d="M290 525 c0 -8 4 -15 10 -15 5 0 7 7 4 15 -4 8 -8 15 -10 15 -2 0 -4
-7 -4 -15z"/>
<path d="M2192 510 c0 -14 2 -19 5 -12 2 6 2 18 0 25 -3 6 -5 1 -5 -13z"/>
<path d="M2721 514 c0 -11 3 -14 6 -6 3 7 2 16 -1 19 -3 4 -6 -2 -5 -13z"/>
<path d="M2457 513 c-3 -5 -7 -35 -8 -68 l-4 -60 30 -2 c20 -1 23 0 8 4 -26 5
-29 28 -10 83 9 27 19 36 42 41 27 6 26 7 -12 8 -23 0 -44 -2 -46 -6z m16 -18
c-3 -9 -8 -14 -10 -11 -3 3 -2 9 2 15 9 16 15 13 8 -4z"/>
<path d="M1401 494 c0 -11 3 -14 6 -6 3 7 2 16 -1 19 -3 4 -6 -2 -5 -13z"/>
<path d="M1419 452 c-2 -34 -1 -62 4 -62 4 0 7 9 7 19 0 10 9 29 20 42 l19 24
1 -31 c0 -35 16 -54 45 -53 17 1 16 2 -5 8 -20 5 -26 14 -28 44 -3 40 -12 46
-33 20 -13 -15 -15 -13 -20 18 -4 28 -6 23 -10 -29z"/>
<path d="M1755 503 c11 -3 27 -10 35 -17 13 -10 13 -9 1 7 -7 9 -23 16 -35 16
-20 -1 -20 -2 -1 -6z"/>
<path d="M1214 485 c-3 -8 -4 -20 -2 -27 3 -7 7 -1 10 15 6 29 1 36 -8 12z"/>
<path d="M1702 467 c0 -20 4 -40 9 -43 11 -6 11 33 0 61 -7 15 -9 11 -9 -18z"/>
<path d="M2535 473 c-13 -58 -13 -63 -5 -58 5 3 11 -3 13 -12 3 -10 5 8 6 40
1 61 -5 74 -14 30z"/>
<path d="M2630 481 c-12 -24 -13 -91 -1 -91 5 0 7 19 4 42 -4 29 -3 39 5 34 8
-5 12 0 12 13 0 26 -6 27 -20 2z"/>
<path d="M15 470 c-14 -15 -16 -23 -7 -32 15 -15 42 7 42 33 0 25 -12 24 -35
-1z"/>
<path d="M1291 464 c-22 -28 -29 -74 -10 -74 5 0 7 5 4 11 -8 12 14 69 26 69
12 0 11 -43 -1 -58 -6 -6 -7 -10 -4 -7 4 3 12 1 18 -4 8 -7 10 2 8 32 -5 56
-15 64 -41 31z"/>
<path d="M2730 476 c0 -8 4 -17 9 -20 5 -4 7 3 4 14 -6 23 -13 26 -13 6z"/>
<path d="M1093 428 c-12 -43 -4 -68 20 -68 6 0 3 6 -7 13 -16 11 -16 15 -1 49
17 43 18 48 7 48 -4 0 -13 -19 -19 -42z"/>
<path d="M1861 454 c0 -11 3 -14 6 -6 3 7 2 16 -1 19 -3 4 -6 -2 -5 -13z"/>
<path d="M2243 436 c-9 -28 -8 -34 3 -29 8 3 14 18 14 34 0 38 -4 37 -17 -5z"/>
<path d="M428 440 c-7 -11 -18 -20 -25 -20 -7 0 -13 -4 -13 -9 0 -5 -3 -18 -6
-28 -3 -11 7 -4 24 16 32 35 51 34 53 -2 1 -18 2 -19 6 -4 3 10 -2 26 -11 36
-9 10 -13 21 -9 24 3 4 3 7 0 7 -4 0 -12 -9 -19 -20z"/>
<path d="M681 445 c-2 -11 -4 -42 -6 -70 -3 -46 -3 -48 6 -17 6 19 8 50 6 70
-2 21 -5 28 -6 17z"/>
<path d="M1024 448 c-4 -7 -14 -23 -22 -35 -8 -13 -12 -23 -9 -23 9 0 50 61
44 66 -3 3 -8 -1 -13 -8z"/>
<path d="M1390 441 c0 -25 6 -27 13 -6 4 8 2 17 -3 20 -6 4 -10 -3 -10 -14z"/>
<path d="M1887 439 c-4 -16 -3 -18 9 -8 16 13 19 29 5 29 -5 0 -11 -9 -14 -21z"/>
<path d="M577 443 c-12 -12 -7 -22 8 -17 8 4 15 10 15 15 0 11 -14 12 -23 2z"/>
<path d="M840 397 c-7 -32 -11 -60 -8 -63 7 -7 31 92 26 107 -2 7 -10 -13 -18
-44z"/>
<path d="M1551 434 c0 -11 3 -14 6 -6 3 7 2 16 -1 19 -3 4 -6 -2 -5 -13z"/>
<path d="M2166 435 c-9 -26 -7 -32 5 -12 6 10 9 21 6 23 -2 3 -7 -2 -11 -11z"/>
<path d="M2361 440 c0 -8 4 -22 9 -30 12 -18 12 -2 0 25 -6 13 -9 15 -9 5z"/>
<path d="M1843 423 c4 -3 -1 -16 -10 -27 -18 -21 -18 -21 5 -2 24 21 29 36 10
36 -6 0 -8 -3 -5 -7z"/>
<path d="M2028 414 c-9 -9 -31 -20 -49 -24 -31 -7 -32 -8 -7 -9 16 -1 39 9 55
24 15 13 26 25 23 25 -3 0 -13 -7 -22 -16z"/>
<path d="M1222 395 c0 -16 2 -22 5 -12 2 9 2 23 0 30 -3 6 -5 -1 -5 -18z"/>
<path d="M1900 416 c0 -2 8 -10 18 -17 15 -13 16 -12 3 4 -13 16 -21 21 -21
13z"/>
<path d="M1720 406 c0 -2 8 -10 18 -17 15 -13 16 -12 3 4 -13 16 -21 21 -21
13z"/>
<path d="M2755 400 c-3 -5 -1 -10 4 -10 6 0 11 5 11 10 0 6 -2 10 -4 10 -3 0
-8 -4 -11 -10z"/>
<path d="M576 375 c-4 -14 -10 -24 -14 -21 -4 2 -12 -5 -18 -17 -8 -19 -7 -22
12 -22 12 0 20 4 17 8 -3 5 1 22 7 38 7 16 10 32 8 35 -3 3 -9 -7 -12 -21z"/>
<path d="M2150 391 c0 -6 4 -13 10 -16 6 -3 7 1 4 9 -7 18 -14 21 -14 7z"/>
<path d="M2658 383 c7 -3 16 -2 19 1 4 3 -2 6 -13 5 -11 0 -14 -3 -6 -6z"/>
<path d="M1778 373 c6 -2 18 -2 25 0 6 3 1 5 -13 5 -14 0 -19 -2 -12 -5z"/>
<path d="M461 354 c0 -11 3 -14 6 -6 3 7 2 16 -1 19 -3 4 -6 -2 -5 -13z"/>
<path d="M23 347 c-15 -6 -23 -19 -23 -34 0 -32 21 -26 38 11 17 33 14 37 -15
23z"/>
<path d="M621 330 c-13 -11 -19 -20 -14 -20 6 0 18 9 28 20 23 25 17 25 -14 0z"/>
<path d="M990 343 c0 -19 21 -27 33 -13 9 10 9 11 -2 5 -8 -4 -17 -2 -22 6 -6
9 -9 10 -9 2z"/>
<path d="M470 321 c0 -6 4 -13 10 -16 6 -3 7 1 4 9 -7 18 -14 21 -14 7z"/>
<path d="M2746 293 c-6 -14 -5 -15 5 -6 7 7 10 15 7 18 -3 3 -9 -2 -12 -12z"/>
<path d="M1204 269 c-3 -6 -15 -9 -25 -6 -11 3 -19 1 -19 -4 0 -15 36 -10 50
6 7 8 10 15 7 15 -3 0 -9 -5 -13 -11z"/>
<path d="M2678 253 c7 -3 16 -2 19 1 4 3 -2 6 -13 5 -11 0 -14 -3 -6 -6z"/>
<path d="M7 183 c-10 -10 -8 -43 2 -43 9 0 21 24 21 41 0 11 -14 12 -23 2z"/>
<path d="M615 103 c-72 -7 -161 -17 -200 -24 -75 -12 -297 -67 -305 -76 -7 -7
237 3 278 11 20 5 32 3 32 -3 0 -6 5 -11 11 -11 6 0 9 9 6 19 -4 15 2 20 31
25 27 4 39 1 45 -9 10 -19 27 -10 27 15 0 19 32 36 49 26 4 -3 41 1 81 10 40
8 79 13 87 10 16 -6 43 3 43 15 0 9 -2 9 -185 -8z"/>
<path d="M830 100 c0 -17 3 -20 13 -13 23 19 75 14 82 -8 8 -24 27 -25 23 -2
-3 19 24 29 50 17 9 -4 31 -7 47 -7 17 1 36 -4 43 -10 9 -7 16 -7 24 1 15 15
48 15 48 1 0 -8 14 -9 44 -5 42 7 43 6 50 -24 3 -17 10 -29 15 -26 5 3 7 15 4
26 -4 15 1 21 23 26 16 4 29 3 31 -3 2 -6 21 -8 43 -6 38 5 40 3 40 -21 0 -14
5 -26 10 -26 6 0 10 12 10 26 0 25 1 26 63 20 34 -2 67 -5 74 -5 6 -1 14 -13
16 -29 4 -23 4 -23 3 4 -2 31 -1 31 46 30 33 0 48 -4 48 -14 0 -10 4 -10 16 2
16 16 39 22 30 8 -2 -4 18 -7 46 -6 29 2 60 -2 70 -7 11 -6 18 -6 18 0 0 15
32 22 46 10 8 -7 29 -9 49 -6 28 5 35 2 35 -10 0 -13 5 -12 24 7 27 25 56 21
56 -7 1 -17 1 -17 11 0 6 11 22 17 46 17 30 0 35 -3 30 -20 -7 -29 12 -25 23
5 6 16 17 25 31 25 19 0 21 -4 16 -32 -5 -33 -5 -33 6 -6 7 17 19 28 31 29
138 7 196 4 196 -11 0 -11 2 -12 8 -2 5 7 26 11 53 10 24 -1 50 1 57 5 7 5 22
5 35 1 21 -8 21 -8 -8 -16 -27 -6 -27 -7 5 -2 67 9 101 10 112 3 6 -4 21 -1
34 7 20 14 23 13 33 -3 9 -15 12 -16 20 -4 10 16 77 7 83 -11 3 -7 13 -3 26
10 24 24 42 21 42 -6 0 -14 2 -15 10 -2 5 8 25 15 45 17 32 2 36 -1 32 -17 -3
-11 -1 -23 4 -26 5 -3 9 7 9 21 0 25 2 26 48 24 26 -1 52 0 58 2 13 7 118 4
131 -4 6 -4 16 0 23 8 11 13 -44 15 -471 15 -717 1 -1906 22 -1986 37 -29 5
-33 3 -33 -17z"/>
<path d="M3950 100 c0 -11 5 -20 10 -20 6 0 10 9 10 20 0 11 -4 20 -10 20 -5
0 -10 -9 -10 -20z"/>
<path d="M2 60 c0 -14 2 -19 5 -12 2 6 2 18 0 25 -3 6 -5 1 -5 -13z"/>
<path d="M670 56 c0 -14 5 -26 10 -26 6 0 10 9 10 19 0 11 -4 23 -10 26 -6 4
-10 -5 -10 -19z"/>
<path d="M28 63 c7 -3 16 -2 19 1 4 3 -2 6 -13 5 -11 0 -14 -3 -6 -6z"/>
<path d="M1100 49 c0 -5 5 -7 10 -4 6 3 10 8 10 11 0 2 -4 4 -10 4 -5 0 -10
-5 -10 -11z"/>
<path d="M835 37 c-4 -11 -3 -23 4 -30 15 -15 19 -7 11 23 -6 22 -8 23 -15 7z"/>
<path d="M2318 30 c-7 -24 -3 -38 8 -28 3 4 4 17 2 30 l-3 23 -7 -25z"/>
<path d="M3541 34 c0 -11 3 -14 6 -6 3 7 2 16 -1 19 -3 4 -6 -2 -5 -13z"/>
<path d="M2387 34 c-4 -4 -7 -14 -7 -23 0 -11 3 -12 11 -4 6 6 10 16 7 23 -2
6 -7 8 -11 4z"/>
<path d="M1001 14 c0 -11 3 -14 6 -6 3 7 2 16 -1 19 -3 4 -6 -2 -5 -13z"/>
<path d="M1745 19 c-4 -6 -5 -12 -2 -15 2 -3 7 2 10 11 7 17 1 20 -8 4z"/>
<path d="M2546 21 c-4 -7 -5 -15 -2 -18 9 -9 19 4 14 18 -4 11 -6 11 -12 0z"/>
<path d="M3210 15 c0 -8 4 -15 10 -15 5 0 7 7 4 15 -4 8 -8 15 -10 15 -2 0 -4
-7 -4 -15z"/>
</g>
</svg>
